<svg id="svg" version="1.1" xmlns="http://www.w3.org/2000/svg" xmlns:xlink="http://www.w3.org/1999/xlink" width="400" height="231.11111111111111" viewBox="0, 0, 400,231.11111111111111"><g id="svgg"><path id="path0" d="M194.913 0.823 C 190.190 1.314,185.597 2.160,181.965 3.209 C 181.520 3.337,180.792 3.540,180.347 3.660 C 173.473 5.512,161.698 10.995,158.035 14.049 C 157.908 14.155,157.127 14.698,156.301 15.256 C 151.368 18.582,143.487 25.879,140.522 29.864 C 140.175 30.330,139.758 30.850,139.595 31.020 C 138.739 31.913,134.931 37.329,133.911 39.106 C 130.830 44.466,130.359 45.368,128.554 49.364 C 127.038 52.718,125.011 58.978,124.061 63.237 C 123.534 65.596,123.421 66.137,123.214 67.283 C 121.493 76.828,121.693 89.906,123.686 98.150 C 123.809 98.659,123.979 99.387,124.063 99.769 C 124.634 102.366,126.330 108.124,126.923 109.480 C 127.034 109.734,127.299 110.410,127.512 110.983 C 127.725 111.555,128.047 112.361,128.227 112.775 C 128.407 113.188,128.723 113.916,128.929 114.393 C 130.184 117.298,132.463 121.639,133.605 123.299 C 134.007 123.883,134.335 124.430,134.335 124.515 C 134.335 124.710,138.228 130.375,138.751 130.942 C 138.966 131.173,139.593 132.266,140.145 133.369 C 141.194 135.464,143.418 139.210,145.035 141.605 C 147.270 144.917,155.667 155.893,157.580 158.003 C 157.711 158.147,159.164 159.931,160.808 161.965 C 162.452 164.000,163.858 165.717,163.933 165.780 C 164.007 165.844,165.303 167.457,166.813 169.364 C 168.323 171.272,169.620 172.884,169.696 172.948 C 169.771 173.012,170.456 173.896,171.217 174.913 C 171.978 175.931,172.662 176.815,172.737 176.879 C 173.684 177.687,185.434 194.356,185.434 194.893 C 185.434 195.031,185.518 195.145,185.622 195.145 C 185.725 195.145,186.024 195.535,186.285 196.012 C 186.547 196.488,187.361 197.867,188.095 199.075 C 190.720 203.394,191.581 204.976,194.200 210.289 C 195.453 212.832,196.647 215.303,196.852 215.780 C 197.058 216.257,197.369 216.986,197.545 217.399 C 197.721 217.812,198.074 218.618,198.328 219.191 C 198.583 219.763,199.119 221.160,199.519 222.296 C 201.937 229.149,203.900 228.982,206.818 221.673 C 208.156 218.323,208.241 218.118,209.398 215.502 C 210.259 213.555,214.111 205.825,215.107 204.046 C 216.959 200.738,218.689 197.854,220.108 195.711 C 220.748 194.745,221.272 193.900,221.272 193.832 C 221.272 193.683,226.142 186.521,226.354 186.358 C 226.437 186.295,226.855 185.723,227.284 185.087 C 227.713 184.451,228.340 183.566,228.677 183.121 C 229.014 182.676,230.418 180.803,231.798 178.960 C 233.177 177.116,235.147 174.566,236.176 173.295 C 237.205 172.023,238.252 170.710,238.503 170.377 C 239.129 169.546,241.679 166.385,241.839 166.243 C 241.910 166.179,242.252 165.746,242.599 165.280 C 242.946 164.814,243.364 164.294,243.527 164.124 C 243.768 163.873,248.140 158.525,249.167 157.225 C 249.318 157.035,250.048 156.135,250.790 155.226 C 251.532 154.317,252.555 153.031,253.064 152.368 C 253.572 151.705,254.097 151.044,254.231 150.899 C 256.932 147.962,263.745 137.733,265.801 133.526 C 266.298 132.509,266.762 131.624,266.832 131.561 C 266.902 131.497,267.211 131.081,267.519 130.636 C 267.828 130.191,268.166 129.723,268.272 129.595 C 269.013 128.704,271.432 125.154,271.438 124.949 C 271.442 124.810,271.653 124.508,271.908 124.277 C 272.162 124.047,272.370 123.782,272.370 123.687 C 272.370 123.593,272.768 122.855,273.254 122.047 C 274.079 120.676,276.708 115.422,277.547 113.468 C 277.752 112.991,278.086 112.211,278.289 111.734 C 278.493 111.257,278.749 110.659,278.858 110.405 C 279.624 108.616,281.538 101.955,282.314 98.382 C 282.425 97.873,282.580 97.197,282.660 96.879 C 282.821 96.236,283.094 94.399,283.519 91.098 C 283.899 88.151,283.901 74.564,283.523 71.792 C 283.090 68.621,282.839 67.060,282.537 65.665 C 282.385 64.965,282.178 63.977,282.075 63.468 C 281.593 61.075,280.231 56.261,279.655 54.913 C 279.491 54.532,279.288 53.960,279.202 53.642 C 279.048 53.070,278.985 52.907,278.317 51.329 C 276.810 47.773,274.429 42.879,273.309 41.037 C 272.793 40.186,272.370 39.438,272.370 39.374 C 272.370 39.178,268.431 33.508,267.183 31.908 C 266.006 30.399,265.724 30.060,263.826 27.885 C 261.546 25.273,256.889 20.778,254.307 18.697 C 253.776 18.269,253.019 17.650,252.624 17.322 C 251.994 16.797,249.618 15.103,248.596 14.451 C 248.396 14.324,248.026 14.038,247.772 13.815 C 247.519 13.592,247.175 13.410,247.008 13.410 C 246.842 13.410,246.705 13.306,246.705 13.179 C 246.705 13.052,246.591 12.948,246.452 12.948 C 246.313 12.948,245.911 12.743,245.560 12.493 C 242.358 10.213,233.970 6.275,228.786 4.619 C 227.896 4.334,226.960 4.019,226.705 3.920 C 226.451 3.820,225.983 3.670,225.665 3.588 C 225.347 3.505,224.723 3.333,224.277 3.206 C 216.034 0.853,204.005 -0.123,194.913 0.823 M208.555 41.951 C 211.853 42.427,214.996 43.226,217.225 44.153 C 224.151 47.036,228.975 50.428,233.147 55.348 C 233.673 55.969,234.208 56.593,234.335 56.735 C 234.967 57.442,236.546 59.644,237.008 60.462 C 239.777 65.361,241.241 69.055,242.071 73.237 C 242.204 73.905,242.433 74.997,242.580 75.665 C 242.922 77.216,242.943 86.043,242.608 87.415 C 242.470 87.978,242.239 89.012,242.094 89.711 C 241.224 93.910,239.060 99.388,237.192 102.123 C 236.829 102.654,236.532 103.143,236.532 103.209 C 236.532 104.146,230.339 110.946,227.767 112.832 C 227.333 113.150,226.861 113.514,226.717 113.642 C 226.572 113.769,226.291 113.977,226.091 114.104 C 225.891 114.231,225.123 114.736,224.384 115.225 C 222.818 116.263,218.676 118.382,218.214 118.382 C 218.039 118.382,217.797 118.476,217.676 118.592 C 217.217 119.034,213.455 120.141,209.711 120.937 C 205.108 121.916,192.469 120.956,190.879 119.507 C 190.758 119.396,190.470 119.306,190.240 119.306 C 190.009 119.306,189.640 119.214,189.419 119.102 C 189.198 118.990,188.757 118.793,188.439 118.664 C 181.677 115.931,174.743 110.640,171.099 105.434 C 170.788 104.988,170.365 104.440,170.159 104.216 C 169.953 103.991,169.642 103.523,169.467 103.175 C 169.293 102.828,168.942 102.237,168.688 101.862 C 167.864 100.644,166.082 96.792,165.308 94.555 C 164.591 92.482,164.442 91.941,163.913 89.480 C 162.910 84.814,162.906 78.000,163.904 73.526 C 164.453 71.068,164.596 70.541,165.196 68.786 C 165.934 66.627,167.227 63.704,168.142 62.129 C 168.496 61.519,168.786 60.921,168.786 60.799 C 168.786 60.678,168.866 60.578,168.963 60.578 C 169.060 60.578,169.242 60.384,169.367 60.148 C 170.769 57.504,175.330 52.383,178.150 50.286 C 178.659 49.908,179.127 49.533,179.191 49.453 C 179.863 48.608,186.493 45.032,189.364 43.965 C 195.046 41.854,202.484 41.073,208.555 41.951 " stroke="none" fill="#cc040c" fill-rule="evenodd"></path><path id="path1" d="M0.000 115.607 L 0.000 231.214 200.000 231.214 L 400.000 231.214 400.000 115.607 L 400.000 0.000 304.220 0.037 C 251.540 0.058,209.376 0.152,210.520 0.247 C 212.434 0.406,213.613 0.574,217.110 1.184 C 217.809 1.306,218.798 1.464,219.306 1.536 C 219.815 1.607,220.330 1.759,220.451 1.873 C 220.572 1.988,221.112 2.081,221.651 2.081 C 222.190 2.081,222.696 2.185,222.775 2.312 C 222.853 2.439,223.217 2.543,223.584 2.543 C 223.950 2.543,224.314 2.647,224.393 2.775 C 224.472 2.902,224.836 3.006,225.202 3.006 C 225.569 3.006,225.933 3.110,226.012 3.237 C 226.090 3.364,226.440 3.468,226.788 3.468 C 227.137 3.468,227.521 3.554,227.642 3.659 C 227.762 3.764,228.329 3.985,228.902 4.149 C 229.474 4.314,230.793 4.800,231.832 5.230 C 232.871 5.660,233.783 6.012,233.858 6.012 C 234.638 6.012,243.032 10.361,246.193 12.404 C 247.246 13.085,248.209 13.642,248.332 13.642 C 248.454 13.642,248.555 13.746,248.555 13.873 C 248.555 14.000,248.691 14.104,248.858 14.104 C 249.025 14.104,249.363 14.286,249.610 14.509 C 249.856 14.731,250.666 15.327,251.408 15.833 C 252.151 16.339,253.036 17.016,253.374 17.336 C 253.712 17.657,254.269 18.138,254.611 18.405 C 258.441 21.390,262.436 25.383,265.894 29.682 C 266.086 29.921,266.454 30.337,266.712 30.607 C 267.927 31.880,271.214 36.539,271.214 36.989 C 271.214 37.119,271.318 37.225,271.445 37.225 C 271.572 37.225,271.676 37.326,271.676 37.449 C 271.676 37.573,272.171 38.432,272.775 39.359 C 273.379 40.286,274.289 41.876,274.798 42.892 C 275.306 43.908,275.801 44.775,275.896 44.817 C 275.991 44.859,276.073 45.015,276.077 45.164 C 276.081 45.312,276.393 46.055,276.770 46.815 C 277.148 47.575,277.457 48.329,277.457 48.491 C 277.457 48.653,277.561 48.786,277.688 48.786 C 277.815 48.786,277.919 48.944,277.919 49.136 C 277.919 49.329,278.011 49.667,278.123 49.888 C 278.236 50.108,278.430 50.549,278.555 50.867 C 278.680 51.185,278.900 51.731,279.044 52.081 C 279.188 52.431,279.396 52.951,279.507 53.237 C 279.617 53.523,279.820 54.017,279.957 54.335 C 280.321 55.174,280.931 57.049,281.274 58.382 C 281.438 59.017,281.739 60.141,281.942 60.878 C 282.146 61.616,282.312 62.505,282.312 62.855 C 282.312 63.205,282.406 63.590,282.520 63.711 C 282.634 63.832,282.786 64.347,282.857 64.855 C 282.929 65.364,283.103 66.405,283.243 67.168 C 283.384 67.931,283.553 69.153,283.620 69.884 C 283.686 70.616,283.819 71.214,283.916 71.214 C 284.762 71.214,284.603 87.343,283.698 93.295 C 283.563 94.185,283.394 95.434,283.323 96.069 C 283.252 96.705,283.100 97.324,282.984 97.445 C 282.869 97.566,282.775 97.923,282.775 98.238 C 282.775 98.553,282.678 99.131,282.559 99.521 C 282.440 99.912,282.232 100.673,282.097 101.214 C 281.612 103.144,281.106 105.008,280.451 107.283 C 280.286 107.855,280.065 108.423,279.960 108.543 C 279.855 108.664,279.769 109.002,279.769 109.295 C 279.769 109.587,279.665 109.827,279.538 109.827 C 279.410 109.827,279.306 110.081,279.306 110.391 C 279.306 110.701,279.202 111.020,279.075 111.098 C 278.948 111.177,278.844 111.443,278.844 111.690 C 278.844 111.937,278.740 112.139,278.613 112.139 C 278.486 112.139,278.382 112.296,278.382 112.489 C 278.382 112.681,278.285 113.019,278.168 113.240 C 278.051 113.461,277.492 114.630,276.925 115.838 C 274.631 120.734,274.342 121.310,273.716 122.238 C 273.357 122.770,273.064 123.316,273.064 123.452 C 273.064 123.588,272.960 123.699,272.832 123.699 C 272.705 123.699,272.601 123.836,272.601 124.003 C 272.601 124.169,272.419 124.508,272.197 124.754 C 271.974 125.001,271.644 125.488,271.464 125.838 C 271.283 126.188,271.049 126.474,270.944 126.474 C 270.838 126.474,270.751 126.593,270.751 126.739 C 270.751 126.976,268.874 129.604,267.389 131.445 C 267.081 131.827,266.827 132.300,266.825 132.497 C 266.823 132.694,266.724 132.954,266.606 133.075 C 266.487 133.196,265.900 134.231,265.300 135.376 C 264.004 137.851,261.553 141.818,261.253 141.927 C 261.136 141.969,261.040 142.132,261.040 142.288 C 261.040 142.444,260.858 142.773,260.636 143.020 C 260.413 143.267,260.084 143.754,259.903 144.104 C 259.723 144.454,259.489 144.740,259.383 144.740 C 259.277 144.740,259.191 144.863,259.191 145.014 C 259.191 145.165,258.793 145.763,258.307 146.344 C 257.822 146.924,256.243 148.960,254.799 150.867 C 253.356 152.775,252.114 154.387,252.040 154.451 C 251.966 154.514,251.631 154.931,251.297 155.376 C 250.680 156.196,250.343 156.603,248.908 158.266 C 248.468 158.775,247.409 160.075,246.553 161.156 C 245.697 162.237,244.938 163.173,244.867 163.237 C 244.796 163.301,244.453 163.734,244.106 164.200 C 243.759 164.666,243.341 165.186,243.176 165.356 C 243.012 165.526,242.051 166.705,241.040 167.977 C 240.030 169.249,239.018 170.457,238.792 170.663 C 238.566 170.869,238.381 171.129,238.380 171.241 C 238.380 171.353,238.094 171.757,237.745 172.139 C 237.115 172.826,236.151 174.033,235.260 175.248 C 235.006 175.595,234.416 176.338,233.948 176.899 C 232.780 178.302,231.335 180.220,229.833 182.359 C 229.137 183.351,228.505 184.214,228.430 184.277 C 228.355 184.341,227.942 184.913,227.514 185.549 C 227.085 186.185,226.546 186.873,226.315 187.079 C 226.085 187.285,225.896 187.551,225.896 187.671 C 225.896 187.791,225.714 188.097,225.491 188.351 C 225.269 188.604,224.983 188.975,224.855 189.175 C 224.728 189.376,224.118 190.303,223.498 191.236 C 222.879 192.169,222.264 193.170,222.132 193.461 C 221.999 193.751,221.804 193.988,221.697 193.988 C 221.590 193.988,221.503 194.118,221.502 194.277 C 221.502 194.436,221.190 194.931,220.809 195.376 C 220.428 195.821,220.116 196.265,220.116 196.362 C 220.116 196.459,219.764 197.084,219.334 197.749 C 218.160 199.568,215.805 203.601,215.455 204.391 C 215.286 204.774,215.069 205.087,214.972 205.087 C 214.876 205.087,214.798 205.295,214.798 205.549 C 214.798 205.803,214.694 206.012,214.566 206.012 C 214.439 206.012,214.335 206.211,214.335 206.455 C 214.335 206.698,214.252 206.933,214.150 206.975 C 213.974 207.048,211.316 212.351,210.344 214.566 C 210.093 215.139,209.692 216.007,209.452 216.496 C 209.213 216.985,209.017 217.531,209.017 217.710 C 209.017 217.888,208.913 218.035,208.786 218.035 C 208.659 218.035,208.555 218.192,208.555 218.385 C 208.555 218.577,208.461 218.915,208.346 219.136 C 208.231 219.357,207.748 220.526,207.274 221.734 C 204.221 229.509,201.565 229.851,199.202 222.775 C 198.583 220.922,198.274 220.118,197.892 219.367 C 197.780 219.146,197.688 218.808,197.688 218.616 C 197.688 218.423,197.584 218.266,197.457 218.266 C 197.329 218.266,197.225 218.006,197.225 217.688 C 197.225 217.370,197.121 217.110,196.994 217.110 C 196.867 217.110,196.763 216.968,196.763 216.795 C 196.763 216.623,196.462 215.868,196.093 215.119 C 195.725 214.370,195.161 213.185,194.840 212.486 C 193.592 209.763,191.162 205.009,190.773 204.529 C 190.570 204.278,190.036 203.363,188.942 201.387 C 188.624 200.815,188.239 200.191,188.086 200.000 C 187.932 199.809,187.409 198.897,186.923 197.974 C 186.437 197.050,185.851 196.092,185.621 195.845 C 185.391 195.597,185.202 195.287,185.202 195.154 C 185.202 195.022,185.116 194.913,185.010 194.913 C 184.904 194.913,184.670 194.627,184.490 194.277 C 184.309 193.928,184.087 193.538,183.995 193.410 C 182.959 191.974,180.809 188.622,180.809 188.441 C 180.809 188.313,180.731 188.208,180.636 188.207 C 180.540 188.206,180.098 187.635,179.653 186.936 C 179.208 186.238,178.766 185.667,178.671 185.666 C 178.575 185.665,178.497 185.562,178.497 185.436 C 178.497 185.232,178.144 184.735,177.452 183.963 C 177.322 183.818,176.704 182.971,176.078 182.081 C 175.453 181.191,174.878 180.410,174.801 180.347 C 174.723 180.283,174.406 179.867,174.096 179.422 C 173.786 178.977,173.402 178.457,173.242 178.266 C 173.082 178.075,172.716 177.592,172.429 177.193 C 171.179 175.451,169.077 172.775,168.439 172.110 C 168.058 171.713,166.809 170.164,165.665 168.669 C 164.520 167.174,163.376 165.730,163.121 165.459 C 162.867 165.189,162.387 164.604,162.054 164.160 C 161.721 163.716,161.066 162.936,160.599 162.428 C 160.132 161.919,159.261 160.827,158.664 160.000 C 158.066 159.173,157.368 158.276,157.112 158.006 C 156.857 157.736,156.490 157.320,156.297 157.081 C 155.507 156.103,153.155 153.159,152.832 152.744 C 152.642 152.498,152.168 151.924,151.779 151.467 C 151.085 150.651,147.691 146.100,146.589 144.509 C 146.280 144.064,145.946 143.665,145.847 143.622 C 145.747 143.580,145.665 143.398,145.665 143.218 C 145.665 143.038,145.583 142.890,145.483 142.890 C 145.384 142.890,145.120 142.582,144.897 142.205 C 144.675 141.828,144.363 141.386,144.204 141.222 C 143.904 140.912,143.170 139.724,142.307 138.150 C 142.028 137.642,141.561 136.809,141.269 136.301 C 140.977 135.792,140.520 134.960,140.253 134.451 C 139.987 133.942,139.717 133.474,139.653 133.410 C 139.590 133.347,139.302 132.826,139.015 132.252 C 138.727 131.679,138.222 130.898,137.891 130.518 C 137.561 130.138,136.867 129.202,136.349 128.439 C 135.831 127.676,135.323 127.017,135.218 126.975 C 135.114 126.933,135.029 126.746,135.029 126.561 C 135.029 126.375,134.821 126.000,134.566 125.727 C 134.312 125.454,134.104 125.094,134.104 124.928 C 134.104 124.761,134.000 124.624,133.873 124.624 C 133.746 124.624,133.642 124.515,133.642 124.380 C 133.642 124.246,133.241 123.544,132.750 122.820 C 132.260 122.095,131.156 120.046,130.297 118.266 C 129.438 116.486,128.643 114.848,128.529 114.627 C 128.416 114.407,128.324 114.068,128.324 113.876 C 128.324 113.683,128.220 113.526,128.092 113.526 C 127.965 113.526,127.861 113.369,127.861 113.176 C 127.861 112.984,127.769 112.645,127.657 112.425 C 127.545 112.204,127.337 111.737,127.195 111.387 C 127.053 111.038,126.836 110.517,126.714 110.231 C 126.079 108.749,124.393 103.257,124.393 102.670 C 124.393 102.297,124.301 101.935,124.187 101.865 C 123.993 101.746,123.857 101.160,123.551 99.131 C 123.478 98.654,123.326 98.205,123.213 98.135 C 123.099 98.065,123.006 97.566,123.006 97.027 C 123.006 96.488,122.911 95.947,122.795 95.827 C 122.587 95.611,122.425 94.412,122.169 91.214 C 122.098 90.324,121.955 89.491,121.851 89.364 C 121.570 89.019,121.746 74.164,122.056 72.023 C 122.204 71.006,122.383 69.601,122.454 68.902 C 122.526 68.202,122.679 67.531,122.795 67.410 C 122.911 67.290,123.006 66.764,123.006 66.243 C 123.006 65.721,123.099 65.196,123.213 65.075 C 123.327 64.954,123.481 64.439,123.555 63.931 C 123.628 63.422,123.754 62.563,123.834 62.022 C 123.914 61.480,124.073 60.980,124.186 60.910 C 124.300 60.839,124.393 60.533,124.393 60.228 C 124.393 59.924,124.489 59.436,124.605 59.144 C 124.722 58.852,125.198 57.364,125.664 55.838 C 126.130 54.312,126.593 52.855,126.693 52.601 C 127.048 51.698,127.456 50.746,127.657 50.350 C 127.769 50.129,127.861 49.791,127.861 49.599 C 127.861 49.406,127.965 49.249,128.092 49.249 C 128.220 49.249,128.324 49.040,128.324 48.786 C 128.324 48.532,128.428 48.324,128.555 48.324 C 128.682 48.324,128.786 48.166,128.786 47.974 C 128.786 47.781,128.877 47.443,128.988 47.222 C 129.100 47.001,129.397 46.405,129.649 45.896 C 130.205 44.772,131.357 42.665,132.403 40.855 C 132.830 40.117,133.179 39.459,133.179 39.393 C 133.179 39.328,133.491 38.820,133.873 38.266 C 134.254 37.711,134.566 37.194,134.566 37.116 C 134.566 37.038,134.676 36.849,134.809 36.695 C 134.943 36.542,135.697 35.523,136.486 34.431 C 141.415 27.604,147.828 20.933,153.295 16.945 C 154.121 16.342,154.850 15.787,154.913 15.711 C 155.754 14.712,162.719 10.489,167.052 8.352 C 171.532 6.143,172.543 5.702,174.798 4.974 C 175.879 4.624,176.971 4.259,177.225 4.161 C 177.480 4.063,178.156 3.857,178.728 3.703 C 179.301 3.549,179.949 3.329,180.170 3.214 C 180.391 3.100,180.827 3.006,181.139 3.006 C 181.451 3.006,181.764 2.913,181.834 2.800 C 181.904 2.687,182.300 2.536,182.715 2.464 C 183.129 2.393,183.832 2.270,184.277 2.192 C 184.723 2.113,185.295 1.960,185.549 1.850 C 185.803 1.740,186.376 1.586,186.821 1.508 C 187.266 1.430,188.202 1.264,188.902 1.138 C 191.362 0.696,193.433 0.428,195.723 0.254 C 196.994 0.157,153.477 0.060,99.017 0.039 L 0.000 0.000 0.000 115.607 M199.653 42.083 C 199.399 42.191,198.683 42.287,198.062 42.296 C 197.440 42.305,196.504 42.424,195.981 42.562 C 195.457 42.699,194.639 42.907,194.162 43.024 C 192.069 43.538,191.304 43.758,190.928 43.953 C 190.707 44.068,190.323 44.162,190.075 44.162 C 189.826 44.162,189.558 44.266,189.480 44.393 C 189.401 44.520,189.149 44.624,188.920 44.624 C 188.162 44.624,181.310 48.308,181.079 48.840 C 181.037 48.937,180.881 49.017,180.732 49.018 C 180.584 49.018,180.190 49.252,179.857 49.538 C 179.525 49.824,178.908 50.318,178.487 50.636 C 177.091 51.689,176.308 52.357,175.641 53.061 C 173.734 55.074,172.981 55.924,172.362 56.763 C 171.986 57.272,171.618 57.740,171.543 57.803 C 170.593 58.608,167.201 64.694,166.259 67.283 C 166.097 67.728,165.883 68.301,165.783 68.555 C 165.684 68.809,165.467 69.486,165.303 70.058 C 165.138 70.630,164.930 71.202,164.841 71.329 C 164.752 71.457,164.612 71.977,164.530 72.486 C 164.448 72.994,164.266 73.983,164.126 74.682 C 163.777 76.419,163.608 86.475,163.922 86.789 C 164.054 86.921,164.162 87.495,164.162 88.065 C 164.162 88.634,164.256 89.420,164.372 89.810 C 164.488 90.201,164.682 90.884,164.803 91.329 C 165.439 93.660,165.643 94.327,166.074 95.491 C 166.333 96.191,166.997 97.653,167.550 98.741 C 168.103 99.829,168.555 100.843,168.555 100.995 C 168.555 101.147,168.659 101.272,168.786 101.272 C 168.913 101.272,169.017 101.408,169.017 101.575 C 169.017 101.742,169.199 102.084,169.422 102.336 C 169.645 102.588,169.983 103.065,170.173 103.397 C 171.373 105.483,175.088 109.525,178.636 112.606 C 179.517 113.371,182.300 115.199,183.468 115.781 C 183.977 116.034,185.277 116.684,186.358 117.225 C 188.912 118.503,189.733 118.839,191.445 119.306 C 192.017 119.463,192.694 119.672,192.948 119.772 C 195.303 120.701,205.037 121.195,208.786 120.577 C 210.121 120.357,211.605 120.126,212.082 120.064 C 212.560 120.002,213.008 119.858,213.079 119.744 C 213.149 119.631,213.454 119.538,213.757 119.538 C 214.060 119.538,214.372 119.434,214.451 119.306 C 214.529 119.179,214.842 119.075,215.145 119.075 C 215.447 119.075,215.760 118.971,215.838 118.844 C 215.917 118.717,216.173 118.613,216.408 118.613 C 216.777 118.613,217.458 118.328,219.245 117.428 C 219.466 117.316,219.804 117.225,219.997 117.225 C 220.189 117.225,220.347 117.147,220.347 117.051 C 220.347 116.955,220.685 116.728,221.098 116.547 C 222.144 116.088,225.708 113.948,226.127 113.527 C 226.191 113.463,226.711 113.049,227.283 112.608 C 230.047 110.476,232.471 108.014,234.347 105.434 C 235.226 104.225,235.998 103.185,236.065 103.121 C 236.131 103.058,236.315 102.772,236.474 102.486 C 236.633 102.199,236.893 101.731,237.052 101.445 C 237.211 101.159,237.400 100.873,237.471 100.809 C 237.668 100.634,240.000 95.757,240.000 95.520 C 240.000 95.201,240.710 92.882,240.946 92.431 C 241.062 92.210,241.156 91.774,241.156 91.462 C 241.156 91.150,241.249 90.837,241.363 90.767 C 241.477 90.696,241.628 90.248,241.700 89.770 C 241.772 89.293,241.960 88.121,242.119 87.168 C 242.466 85.083,242.463 78.441,242.114 76.185 C 241.976 75.295,241.798 74.098,241.717 73.526 C 241.637 72.954,241.478 72.387,241.364 72.266 C 241.249 72.145,241.156 71.788,241.156 71.472 C 241.156 70.793,240.391 68.461,239.755 67.204 C 239.508 66.715,239.306 66.216,239.306 66.095 C 239.306 65.854,237.617 62.402,236.776 60.925 C 235.196 58.149,230.503 52.768,228.098 50.975 C 227.592 50.598,226.874 50.003,226.503 49.653 C 226.131 49.303,225.695 49.017,225.534 49.017 C 225.373 49.017,225.206 48.935,225.164 48.835 C 225.052 48.570,223.058 47.419,220.925 46.388 C 219.908 45.896,218.675 45.298,218.186 45.059 C 217.697 44.820,217.151 44.624,216.972 44.624 C 216.794 44.624,216.647 44.520,216.647 44.393 C 216.647 44.266,216.393 44.162,216.083 44.162 C 215.773 44.162,215.454 44.058,215.376 43.931 C 215.297 43.803,214.985 43.699,214.682 43.699 C 214.379 43.699,214.074 43.606,214.004 43.493 C 213.933 43.379,213.485 43.230,213.007 43.161 C 212.530 43.092,210.786 42.815,209.133 42.546 C 205.935 42.025,200.423 41.755,199.653 42.083 " stroke="none" fill="#f4f4f4" fill-rule="evenodd"></path><path id="path2" d="M198.844 0.231 L 197.572 0.387 198.728 0.421 C 199.364 0.440,200.040 0.354,200.231 0.231 C 200.422 0.108,200.474 0.022,200.347 0.041 C 200.220 0.060,199.543 0.146,198.844 0.231 M206.127 0.237 C 206.572 0.423,208.733 0.550,208.536 0.379 C 208.483 0.333,207.815 0.239,207.052 0.170 C 206.214 0.094,205.848 0.120,206.127 0.237 M148.540 21.098 L 147.861 21.850 148.613 21.171 C 149.026 20.797,149.364 20.459,149.364 20.419 C 149.364 20.241,149.173 20.398,148.540 21.098 M259.075 22.659 C 259.572 23.168,260.030 23.584,260.094 23.584 C 260.157 23.584,259.803 23.168,259.306 22.659 C 258.810 22.150,258.351 21.734,258.288 21.734 C 258.224 21.734,258.578 22.150,259.075 22.659 M261.503 25.087 C 262.194 25.786,262.811 26.358,262.874 26.358 C 262.938 26.358,262.425 25.786,261.734 25.087 C 261.043 24.387,260.426 23.815,260.363 23.815 C 260.299 23.815,260.812 24.387,261.503 25.087 M207.283 42.081 C 207.538 42.190,207.954 42.277,208.208 42.273 C 208.580 42.267,208.557 42.230,208.092 42.081 C 207.302 41.828,206.694 41.828,207.283 42.081 M229.133 51.633 C 229.133 51.673,229.471 52.011,229.884 52.384 L 230.636 53.064 229.957 52.312 C 229.324 51.612,229.133 51.454,229.133 51.633 M174.209 54.162 L 173.295 55.145 174.277 54.231 C 175.191 53.381,175.366 53.179,175.191 53.179 C 175.154 53.179,174.711 53.621,174.209 54.162 M122.135 72.370 C 122.135 72.815,122.182 72.997,122.240 72.775 C 122.298 72.552,122.298 72.188,122.240 71.965 C 122.182 71.743,122.135 71.925,122.135 72.370 M283.994 74.220 C 283.994 74.792,284.039 75.026,284.094 74.740 C 284.149 74.454,284.149 73.986,284.094 73.699 C 284.039 73.413,283.994 73.647,283.994 74.220 M121.709 80.925 C 121.709 82.642,121.745 83.344,121.790 82.486 C 121.834 81.627,121.834 80.223,121.790 79.364 C 121.745 78.506,121.709 79.208,121.709 80.925 M242.617 79.538 C 242.617 80.364,242.659 80.702,242.711 80.289 C 242.762 79.876,242.762 79.199,242.711 78.786 C 242.659 78.373,242.617 78.711,242.617 79.538 M284.249 82.775 C 284.249 84.237,284.287 84.835,284.333 84.104 C 284.379 83.373,284.379 82.176,284.333 81.445 C 284.287 80.714,284.249 81.312,284.249 82.775 M242.609 84.277 C 242.611 84.913,242.656 85.146,242.709 84.795 C 242.762 84.443,242.761 83.923,242.706 83.638 C 242.651 83.354,242.608 83.642,242.609 84.277 M163.527 85.665 C 163.529 86.173,163.576 86.354,163.632 86.067 C 163.687 85.779,163.685 85.363,163.627 85.142 C 163.569 84.921,163.524 85.156,163.527 85.665 M121.903 87.399 C 121.903 87.844,121.951 88.026,122.009 87.803 C 122.067 87.581,122.067 87.217,122.009 86.994 C 121.951 86.772,121.903 86.954,121.903 87.399 M284.000 88.555 C 284.000 89.254,284.043 89.540,284.096 89.191 C 284.149 88.841,284.149 88.269,284.096 87.919 C 284.043 87.569,284.000 87.855,284.000 88.555 M122.139 90.520 C 122.142 91.029,122.189 91.210,122.244 90.922 C 122.300 90.635,122.298 90.218,122.240 89.997 C 122.182 89.776,122.137 90.012,122.139 90.520 M173.410 108.049 C 173.410 108.089,173.749 108.427,174.162 108.801 L 174.913 109.480 174.234 108.728 C 173.601 108.028,173.410 107.871,173.410 108.049 M229.465 111.040 L 228.786 111.792 229.538 111.113 C 229.951 110.739,230.289 110.401,230.289 110.361 C 230.289 110.183,230.098 110.340,229.465 111.040 M199.714 121.088 C 200.001 121.144,200.417 121.142,200.639 121.084 C 200.860 121.026,200.624 120.981,200.116 120.983 C 199.607 120.986,199.426 121.033,199.714 121.088 M205.838 121.084 C 206.061 121.142,206.425 121.142,206.647 121.084 C 206.870 121.026,206.688 120.978,206.243 120.978 C 205.798 120.978,205.616 121.026,205.838 121.084 M202.146 121.326 C 202.754 121.374,203.690 121.374,204.227 121.325 C 204.763 121.277,204.266 121.237,203.121 121.238 C 201.977 121.239,201.538 121.279,202.146 121.326 " stroke="none" fill="#e69398" fill-rule="evenodd"></path><path id="path3" d="M198.442 0.166 C 198.794 0.219,199.314 0.218,199.599 0.163 C 199.883 0.108,199.595 0.064,198.960 0.066 C 198.324 0.068,198.091 0.113,198.442 0.166 M207.746 0.226 C 209.831 0.493,213.377 0.671,212.717 0.476 C 212.399 0.382,210.838 0.247,209.249 0.177 C 207.459 0.098,206.886 0.116,207.746 0.226 M193.295 0.453 C 192.977 0.549,193.809 0.577,195.145 0.514 C 196.480 0.452,197.616 0.362,197.669 0.316 C 197.853 0.154,193.869 0.279,193.295 0.453 M190.058 0.922 C 189.826 1.071,190.133 1.097,190.983 1.002 C 191.682 0.924,192.298 0.823,192.351 0.777 C 192.577 0.581,190.372 0.721,190.058 0.922 M213.430 0.777 C 213.483 0.823,214.098 0.918,214.798 0.990 C 215.589 1.070,215.895 1.045,215.607 0.923 C 215.164 0.734,213.231 0.605,213.430 0.777 M187.514 1.399 C 187.266 1.569,187.430 1.592,188.092 1.481 C 189.239 1.289,189.424 1.155,188.536 1.160 C 188.165 1.162,187.705 1.269,187.514 1.399 M216.435 1.240 C 216.488 1.286,216.995 1.383,217.560 1.455 C 218.226 1.540,218.470 1.512,218.254 1.375 C 217.945 1.179,216.219 1.051,216.435 1.240 M185.549 1.850 C 185.380 2.123,185.606 2.123,186.243 1.850 C 186.689 1.658,186.687 1.650,186.199 1.635 C 185.920 1.626,185.628 1.723,185.549 1.850 M219.191 1.708 C 219.191 1.757,219.497 1.842,219.872 1.897 C 220.247 1.952,220.501 1.912,220.437 1.808 C 220.322 1.622,219.191 1.532,219.191 1.708 M221.850 2.312 C 222.492 2.588,222.945 2.588,222.775 2.312 C 222.696 2.185,222.352 2.088,222.009 2.097 C 221.454 2.112,221.437 2.135,221.850 2.312 M181.850 2.775 C 181.681 3.048,181.907 3.048,182.543 2.775 C 182.989 2.583,182.988 2.575,182.499 2.560 C 182.221 2.551,181.928 2.647,181.850 2.775 M229.827 4.624 C 230.017 4.748,230.329 4.848,230.520 4.848 C 230.829 4.848,230.829 4.824,230.520 4.624 C 230.329 4.501,230.017 4.400,229.827 4.400 C 229.518 4.400,229.518 4.425,229.827 4.624 M173.757 5.299 C 171.811 6.018,171.329 6.227,171.329 6.349 C 171.329 6.414,171.876 6.248,172.543 5.981 C 173.211 5.713,174.095 5.398,174.509 5.280 C 174.922 5.162,175.260 5.018,175.260 4.960 C 175.260 4.786,174.967 4.852,173.757 5.299 M233.295 5.914 C 233.295 6.070,234.496 6.506,234.610 6.392 C 234.663 6.339,234.388 6.186,234.000 6.050 C 233.612 5.915,233.295 5.854,233.295 5.914 M161.098 11.462 C 159.903 12.245,160.001 12.403,161.214 11.648 C 162.380 10.922,162.454 10.863,162.177 10.881 C 162.061 10.888,161.575 11.150,161.098 11.462 M249.245 14.556 C 249.561 14.799,249.866 14.951,249.922 14.895 C 250.053 14.764,249.208 14.119,248.902 14.117 C 248.775 14.115,248.929 14.313,249.245 14.556 M252.246 16.622 C 252.686 17.017,253.142 17.341,253.259 17.341 C 253.377 17.341,253.173 17.114,252.806 16.837 C 251.654 15.967,251.414 15.875,252.246 16.622 M256.879 20.407 C 256.879 20.464,257.633 21.171,258.555 21.978 C 259.477 22.784,259.971 23.153,259.653 22.797 C 259.016 22.084,256.879 20.243,256.879 20.407 M147.847 21.561 L 147.168 22.312 147.919 21.633 C 148.332 21.260,148.671 20.921,148.671 20.882 C 148.671 20.703,148.480 20.860,147.847 21.561 M260.816 24.203 C 261.221 24.544,262.166 25.535,262.915 26.406 C 263.664 27.276,264.277 27.897,264.277 27.786 C 264.277 27.495,260.582 23.584,260.308 23.584 C 260.183 23.584,260.411 23.863,260.816 24.203 M144.543 24.667 C 144.117 25.106,143.812 25.507,143.865 25.560 C 143.917 25.613,144.365 25.242,144.860 24.736 C 145.354 24.229,145.659 23.827,145.538 23.843 C 145.417 23.858,144.969 24.229,144.543 24.667 M142.760 26.647 L 142.081 27.399 142.832 26.720 C 143.246 26.346,143.584 26.008,143.584 25.968 C 143.584 25.790,143.393 25.947,142.760 26.647 M141.286 28.279 L 140.723 29.017 141.460 28.338 C 142.226 27.632,142.314 27.506,142.023 27.527 C 141.928 27.534,141.596 27.872,141.286 28.279 M267.052 31.072 C 267.052 31.165,267.692 32.093,268.475 33.135 C 270.055 35.239,270.289 35.524,270.289 35.346 C 270.289 35.279,269.561 34.252,268.671 33.064 C 267.780 31.875,267.052 30.979,267.052 31.072 M136.994 33.701 C 135.257 36.080,134.596 37.124,135.611 35.886 C 136.574 34.709,138.757 31.628,138.681 31.552 C 138.643 31.514,137.884 32.481,136.994 33.701 M273.410 40.694 C 273.608 41.075,273.821 41.387,273.885 41.387 C 273.948 41.387,273.839 41.075,273.642 40.694 C 273.444 40.312,273.231 40.000,273.167 40.000 C 273.104 40.000,273.213 40.312,273.410 40.694 M274.138 42.023 C 274.197 42.246,274.451 42.688,274.703 43.006 C 275.126 43.539,275.123 43.507,274.667 42.601 C 274.142 41.556,273.965 41.363,274.138 42.023 M198.497 42.081 L 197.803 42.257 198.497 42.269 C 198.879 42.275,199.399 42.190,199.653 42.081 L 200.116 41.882 199.653 41.893 C 199.399 41.899,198.879 41.984,198.497 42.081 M204.644 41.933 C 204.697 41.979,205.416 42.076,206.243 42.149 C 207.173 42.231,207.570 42.206,207.283 42.082 C 206.845 41.893,204.440 41.757,204.644 41.933 M208.574 42.396 C 208.627 42.441,209.139 42.541,209.711 42.617 C 210.406 42.708,210.598 42.686,210.289 42.549 C 209.847 42.354,208.373 42.222,208.574 42.396 M193.526 43.006 C 193.218 43.205,193.218 43.230,193.526 43.230 C 193.717 43.230,194.029 43.129,194.220 43.006 C 194.528 42.807,194.528 42.782,194.220 42.782 C 194.029 42.782,193.717 42.883,193.526 43.006 M191.676 43.468 C 191.368 43.667,191.368 43.692,191.676 43.692 C 191.867 43.692,192.179 43.591,192.370 43.468 C 192.678 43.269,192.678 43.244,192.370 43.244 C 192.179 43.244,191.867 43.345,191.676 43.468 M184.390 46.497 C 183.121 47.165,181.272 48.347,181.272 48.490 C 181.272 48.555,181.536 48.435,181.860 48.223 C 183.076 47.426,184.768 46.474,184.968 46.474 C 185.082 46.474,185.239 46.370,185.318 46.243 C 185.515 45.923,185.439 45.944,184.390 46.497 M220.578 46.111 C 220.578 46.223,222.394 47.168,222.608 47.167 C 222.817 47.166,221.529 46.382,220.983 46.178 C 220.760 46.094,220.578 46.064,220.578 46.111 M223.815 47.873 C 224.617 48.417,225.074 48.575,224.509 48.113 C 224.191 47.853,223.827 47.640,223.699 47.639 C 223.572 47.638,223.624 47.743,223.815 47.873 M179.092 49.843 C 178.847 50.022,178.691 50.213,178.746 50.268 C 178.800 50.322,179.045 50.220,179.290 50.041 C 179.535 49.862,179.690 49.671,179.636 49.617 C 179.581 49.562,179.337 49.664,179.092 49.843 M126.628 52.640 C 126.543 52.724,126.481 53.011,126.489 53.276 C 126.502 53.718,126.521 53.713,126.725 53.203 C 126.951 52.637,126.904 52.364,126.628 52.640 M173.988 54.566 C 173.362 55.202,172.950 55.712,173.072 55.699 C 173.290 55.676,175.422 53.410,175.226 53.410 C 175.172 53.410,174.615 53.931,173.988 54.566 M279.983 54.929 C 281.050 58.450,281.486 59.645,281.240 58.382 C 281.047 57.389,280.174 54.721,279.959 54.466 C 279.859 54.348,279.869 54.556,279.983 54.929 M171.984 56.936 C 170.469 58.823,168.839 61.272,169.098 61.272 C 169.151 61.272,169.644 60.582,170.193 59.738 C 170.743 58.895,171.301 58.088,171.434 57.946 C 171.876 57.475,172.973 55.954,172.872 55.954 C 172.817 55.954,172.418 56.396,171.984 56.936 M233.505 56.377 C 233.630 56.610,233.914 56.949,234.136 57.129 C 234.385 57.332,234.330 57.170,233.989 56.705 C 233.382 55.876,233.154 55.721,233.505 56.377 M234.913 58.266 C 235.185 58.647,235.459 58.960,235.523 58.960 C 235.586 58.960,235.416 58.647,235.145 58.266 C 234.873 57.884,234.599 57.572,234.535 57.572 C 234.471 57.572,234.642 57.884,234.913 58.266 M281.394 59.653 C 281.394 59.844,281.495 60.156,281.618 60.347 C 281.818 60.655,281.843 60.655,281.843 60.347 C 281.843 60.156,281.742 59.844,281.618 59.653 C 281.419 59.345,281.394 59.345,281.394 59.653 M281.882 61.272 C 281.882 61.462,281.972 61.827,282.081 62.081 C 282.206 62.372,282.280 62.415,282.280 62.197 C 282.280 62.006,282.190 61.642,282.081 61.387 C 281.956 61.096,281.882 61.053,281.882 61.272 M238.027 63.295 C 238.228 63.708,238.443 64.046,238.503 64.046 C 238.733 64.046,238.585 63.678,238.131 63.121 L 237.660 62.543 238.027 63.295 M167.055 64.855 C 166.863 65.301,166.536 66.055,166.328 66.532 C 165.782 67.789,165.540 68.704,165.795 68.546 C 165.914 68.472,166.012 68.265,166.012 68.085 C 166.012 67.906,166.281 67.158,166.610 66.423 C 167.430 64.593,167.637 64.046,167.512 64.046 C 167.453 64.046,167.248 64.410,167.055 64.855 M239.202 65.780 C 239.465 66.571,240.017 67.746,240.125 67.746 C 240.269 67.746,239.513 65.830,239.258 65.549 C 239.129 65.407,239.107 65.496,239.202 65.780 M122.632 67.617 C 122.562 67.800,122.545 68.138,122.595 68.368 C 122.651 68.629,122.730 68.504,122.806 68.035 C 122.931 67.247,122.850 67.050,122.632 67.617 M283.392 69.017 C 283.567 70.160,283.701 70.355,283.696 69.461 C 283.694 69.090,283.593 68.630,283.471 68.439 C 283.321 68.203,283.295 68.388,283.392 69.017 M165.219 69.496 C 165.134 69.835,165.116 70.164,165.180 70.228 C 165.243 70.292,165.365 70.066,165.450 69.727 C 165.535 69.389,165.553 69.059,165.489 68.996 C 165.425 68.932,165.304 69.157,165.219 69.496 M122.225 70.414 C 122.146 70.620,122.090 71.015,122.102 71.291 C 122.117 71.646,122.188 71.566,122.346 71.015 C 122.576 70.215,122.482 69.745,122.225 70.414 M241.156 71.393 C 241.156 71.788,241.259 72.175,241.384 72.252 C 241.526 72.340,241.557 72.107,241.466 71.630 C 241.271 70.608,241.156 70.520,241.156 71.393 M283.844 72.197 C 284.051 73.543,284.162 73.577,284.162 72.293 C 284.162 71.699,284.057 71.214,283.928 71.214 C 283.783 71.214,283.751 71.589,283.844 72.197 M164.420 72.409 C 164.405 72.621,164.333 72.985,164.260 73.218 C 164.134 73.620,164.141 73.620,164.391 73.230 C 164.536 73.003,164.608 72.639,164.551 72.420 C 164.457 72.063,164.444 72.061,164.420 72.409 M241.645 73.526 C 241.634 73.844,241.726 74.260,241.850 74.451 C 242.135 74.892,242.135 74.417,241.850 73.526 L 241.665 72.948 241.645 73.526 M121.777 73.846 C 121.690 74.072,121.632 74.847,121.648 75.568 L 121.677 76.879 121.875 75.376 C 122.083 73.794,122.042 73.154,121.777 73.846 M163.959 74.682 C 163.940 74.873,163.867 75.289,163.796 75.607 C 163.685 76.107,163.703 76.129,163.930 75.774 C 164.074 75.547,164.148 75.131,164.093 74.849 C 164.038 74.566,163.978 74.491,163.959 74.682 M284.225 76.532 C 284.225 77.104,284.270 77.338,284.325 77.052 C 284.380 76.766,284.380 76.298,284.325 76.012 C 284.270 75.725,284.225 75.960,284.225 76.532 M242.112 76.532 C 242.099 76.977,242.189 77.497,242.312 77.688 C 242.588 78.115,242.588 77.500,242.312 76.416 L 242.136 75.723 242.112 76.532 M163.410 79.827 C 163.341 81.130,163.362 82.821,163.458 83.584 C 163.591 84.646,163.639 84.092,163.665 81.214 C 163.704 76.935,163.596 76.345,163.410 79.827 M284.445 80.949 C 284.416 82.806,284.344 84.991,284.285 85.804 L 284.177 87.283 284.406 86.017 C 284.532 85.321,284.604 83.136,284.566 81.162 L 284.496 77.572 284.445 80.949 M242.597 81.618 C 242.597 82.064,242.645 82.246,242.703 82.023 C 242.761 81.801,242.761 81.436,242.703 81.214 C 242.645 80.991,242.597 81.173,242.597 81.618 M121.655 86.554 C 121.699 88.060,121.804 89.335,121.889 89.388 C 122.057 89.493,121.854 84.119,121.682 83.931 C 121.623 83.867,121.612 85.047,121.655 86.554 M242.197 86.243 C 242.108 86.769,242.084 87.247,242.143 87.307 C 242.202 87.366,242.320 86.981,242.405 86.451 C 242.489 85.921,242.514 85.442,242.458 85.387 C 242.403 85.332,242.285 85.717,242.197 86.243 M163.722 86.981 C 163.792 87.888,164.115 88.449,164.139 87.702 C 164.151 87.296,164.058 86.899,163.931 86.821 C 163.803 86.742,163.710 86.814,163.722 86.981 M241.763 88.911 C 241.683 89.117,241.627 89.460,241.638 89.672 C 241.649 89.884,241.750 89.751,241.862 89.376 C 242.080 88.646,242.003 88.285,241.763 88.911 M164.303 90.058 C 164.493 90.908,164.625 91.093,164.621 90.501 C 164.619 90.257,164.512 89.902,164.382 89.711 C 164.211 89.458,164.190 89.551,164.303 90.058 M283.970 90.087 C 283.948 90.357,283.872 90.929,283.800 91.358 C 283.693 91.996,283.716 92.064,283.929 91.730 C 284.072 91.505,284.149 90.933,284.099 90.458 C 284.049 89.984,283.991 89.816,283.970 90.087 M241.310 90.790 C 241.225 90.875,241.163 91.161,241.171 91.426 C 241.184 91.869,241.203 91.863,241.407 91.354 C 241.633 90.788,241.586 90.514,241.310 90.790 M122.084 91.927 C 122.086 92.298,122.194 92.757,122.324 92.948 C 122.494 93.196,122.517 93.033,122.406 92.370 C 122.214 91.223,122.080 91.038,122.084 91.927 M164.765 91.908 C 164.956 92.758,165.088 92.942,165.083 92.351 C 165.081 92.107,164.974 91.751,164.845 91.561 C 164.674 91.307,164.652 91.401,164.765 91.908 M240.848 92.408 C 240.763 92.493,240.700 92.779,240.708 93.044 C 240.722 93.487,240.741 93.481,240.944 92.972 C 241.171 92.406,241.124 92.132,240.848 92.408 M165.228 93.526 C 165.418 94.376,165.550 94.561,165.546 93.969 C 165.544 93.725,165.436 93.370,165.307 93.179 C 165.136 92.926,165.115 93.019,165.228 93.526 M283.500 93.796 C 283.482 94.072,283.408 94.488,283.335 94.721 C 283.209 95.122,283.216 95.123,283.466 94.733 C 283.611 94.507,283.685 94.091,283.631 93.808 C 283.531 93.295,283.531 93.295,283.500 93.796 M240.254 94.474 C 240.121 94.956,240.054 95.391,240.105 95.442 C 240.156 95.493,240.306 95.141,240.439 94.659 C 240.572 94.177,240.639 93.742,240.589 93.691 C 240.538 93.640,240.387 93.992,240.254 94.474 M122.543 95.092 C 122.543 95.424,122.652 95.762,122.784 95.844 C 122.942 95.941,122.970 95.767,122.867 95.337 C 122.654 94.451,122.543 94.368,122.543 95.092 M282.926 96.732 C 282.830 97.097,282.807 97.450,282.873 97.517 C 283.060 97.703,283.287 96.959,283.188 96.487 C 283.123 96.179,283.054 96.244,282.926 96.732 M123.022 97.501 C 123.013 97.779,123.110 98.072,123.237 98.150 C 123.510 98.319,123.510 98.093,123.237 97.457 C 123.045 97.011,123.038 97.012,123.022 97.501 M282.428 98.960 C 282.341 99.233,282.322 99.509,282.386 99.572 C 282.449 99.636,282.572 99.464,282.659 99.191 C 282.746 98.917,282.765 98.641,282.701 98.578 C 282.638 98.514,282.515 98.686,282.428 98.960 M236.656 102.101 C 236.440 102.430,236.316 102.752,236.381 102.816 C 236.445 102.880,236.664 102.611,236.868 102.218 C 237.317 101.349,237.193 101.280,236.656 102.101 M281.503 102.659 C 281.416 102.932,281.397 103.208,281.461 103.272 C 281.524 103.335,281.647 103.164,281.734 102.890 C 281.821 102.617,281.840 102.341,281.776 102.277 C 281.713 102.214,281.590 102.385,281.503 102.659 M235.107 104.344 C 234.641 105.007,233.930 105.991,233.526 106.532 C 233.123 107.072,232.841 107.514,232.900 107.514 C 232.959 107.514,233.750 106.526,234.658 105.318 C 235.566 104.110,236.229 103.125,236.132 103.130 C 236.034 103.135,235.573 103.681,235.107 104.344 M171.130 105.145 C 172.148 106.374,173.179 107.498,173.179 107.377 C 173.179 107.301,172.763 106.766,172.254 106.188 C 171.746 105.610,171.329 105.048,171.329 104.939 C 171.329 104.829,171.209 104.740,171.062 104.740 C 170.886 104.740,170.909 104.878,171.130 105.145 M280.615 105.838 C 280.329 106.893,280.236 107.611,280.427 107.283 C 280.655 106.893,280.964 105.434,280.819 105.434 C 280.767 105.434,280.675 105.616,280.615 105.838 M175.132 109.531 C 176.143 110.576,177.018 111.382,177.078 111.323 C 177.138 111.263,177.141 111.188,177.084 111.156 C 177.027 111.124,176.152 110.318,175.138 109.364 L 173.295 107.630 175.132 109.531 M230.964 109.427 C 230.508 109.838,229.743 110.518,229.263 110.939 C 228.783 111.360,228.428 111.741,228.473 111.785 C 228.518 111.829,229.335 111.150,230.289 110.276 C 231.243 109.402,231.971 108.685,231.908 108.684 C 231.844 108.682,231.419 109.017,230.964 109.427 M226.491 113.196 C 226.246 113.375,226.090 113.566,226.144 113.620 C 226.199 113.675,226.444 113.573,226.689 113.394 C 226.934 113.215,227.089 113.024,227.035 112.969 C 226.980 112.915,226.735 113.017,226.491 113.196 M181.965 115.124 C 182.283 115.384,182.647 115.597,182.775 115.598 C 183.022 115.600,182.604 115.280,181.850 114.890 C 181.543 114.731,181.581 114.810,181.965 115.124 M223.179 115.400 C 222.512 115.789,221.965 116.153,221.965 116.209 C 221.965 116.349,223.597 115.491,224.162 115.054 C 224.888 114.493,224.502 114.629,223.179 115.400 M183.121 115.739 C 183.121 115.789,183.564 116.045,184.104 116.309 C 185.054 116.773,185.068 116.774,184.509 116.326 C 183.971 115.895,183.121 115.536,183.121 115.739 M131.447 120.636 C 131.905 121.494,132.494 122.457,132.756 122.775 L 133.234 123.353 132.898 122.775 C 132.713 122.457,132.172 121.494,131.695 120.636 C 131.218 119.777,130.780 119.075,130.722 119.075 C 130.664 119.075,130.990 119.777,131.447 120.636 M194.335 120.230 C 194.777 120.421,196.482 120.552,196.281 120.379 C 196.228 120.334,195.665 120.236,195.029 120.163 C 194.285 120.077,194.038 120.101,194.335 120.230 M210.983 120.231 C 210.691 120.356,210.648 120.430,210.867 120.430 C 211.058 120.430,211.422 120.341,211.676 120.231 C 211.968 120.106,212.011 120.033,211.792 120.033 C 211.601 120.033,211.237 120.122,210.983 120.231 M274.349 120.759 C 274.115 121.168,273.720 121.867,273.471 122.312 L 273.018 123.121 273.491 122.543 C 274.033 121.880,274.962 120.203,274.849 120.090 C 274.807 120.048,274.582 120.349,274.349 120.759 M196.994 120.705 C 197.574 120.879,200.855 120.999,200.674 120.840 C 200.621 120.793,199.642 120.704,198.497 120.643 C 197.353 120.581,196.676 120.609,196.994 120.705 M202.023 121.095 C 202.691 121.142,203.783 121.142,204.451 121.095 C 205.118 121.049,204.572 121.010,203.237 121.010 C 201.902 121.010,201.355 121.049,202.023 121.095 M272.049 124.501 C 271.838 124.823,271.747 125.087,271.847 125.087 C 272.072 125.087,272.670 124.154,272.533 124.017 C 272.478 123.961,272.260 124.180,272.049 124.501 M270.356 127.225 C 269.353 128.536,268.824 129.318,269.022 129.198 C 269.295 129.033,270.831 126.936,270.679 126.936 C 270.623 126.936,270.477 127.066,270.356 127.225 M136.664 128.893 C 136.963 129.437,137.803 130.452,137.797 130.262 C 137.794 130.150,137.508 129.742,137.161 129.355 C 136.815 128.969,136.591 128.761,136.664 128.893 M138.876 131.908 C 139.410 132.820,139.422 132.834,139.422 132.550 C 139.422 132.415,139.208 132.060,138.946 131.760 L 138.470 131.214 138.876 131.908 M263.939 137.477 C 263.723 137.806,263.587 138.115,263.635 138.163 C 263.684 138.212,263.906 137.943,264.129 137.565 C 264.628 136.722,264.479 136.653,263.939 137.477 M142.632 138.728 C 142.915 139.173,143.316 139.876,143.523 140.289 C 143.731 140.702,143.989 141.040,144.096 141.040 C 144.294 141.040,142.817 138.576,142.363 138.150 C 142.228 138.023,142.349 138.283,142.632 138.728 M262.570 139.769 C 262.365 140.087,262.028 140.633,261.822 140.983 L 261.448 141.618 261.913 141.056 C 262.463 140.391,263.191 139.191,263.045 139.191 C 262.989 139.191,262.775 139.451,262.570 139.769 M259.476 144.277 C 259.317 144.532,259.267 144.740,259.364 144.740 C 259.462 144.740,259.672 144.532,259.831 144.277 C 259.990 144.023,260.040 143.815,259.942 143.815 C 259.844 143.815,259.634 144.023,259.476 144.277 M258.473 145.754 C 258.169 146.190,257.419 147.180,256.807 147.955 C 256.196 148.730,255.741 149.364,255.797 149.364 C 255.987 149.364,259.242 145.177,259.135 145.069 C 259.076 145.011,258.778 145.319,258.473 145.754 M149.253 148.184 C 149.719 148.832,150.203 149.426,150.327 149.503 C 150.452 149.581,150.173 149.113,149.707 148.464 C 149.240 147.815,148.757 147.221,148.632 147.144 C 148.507 147.067,148.787 147.535,149.253 148.184 M150.942 150.462 C 151.191 150.812,151.634 151.306,151.927 151.561 C 152.219 151.815,152.053 151.529,151.556 150.925 C 150.562 149.716,150.233 149.468,150.942 150.462 M253.077 152.815 C 252.497 153.568,252.023 154.254,252.023 154.338 C 252.023 154.468,252.479 153.915,254.168 151.734 C 254.291 151.575,254.333 151.445,254.261 151.445 C 254.190 151.445,253.657 152.061,253.077 152.815 M250.806 155.639 C 250.327 156.257,250.015 156.760,250.112 156.756 C 250.328 156.747,251.892 154.700,251.766 154.592 C 251.717 154.549,251.285 155.020,250.806 155.639 M247.566 159.540 C 247.125 160.055,247.043 160.336,247.398 160.116 C 247.624 159.976,248.177 159.075,248.036 159.075 C 247.997 159.075,247.785 159.284,247.566 159.540 M158.970 160.457 C 159.425 161.122,160.925 162.776,160.915 162.602 C 160.909 162.506,160.415 161.905,159.817 161.266 C 159.218 160.627,158.837 160.263,158.970 160.457 M246.453 161.098 C 245.462 162.203,245.011 162.775,245.130 162.775 C 245.194 162.775,245.684 162.254,246.220 161.618 C 247.251 160.396,247.419 160.021,246.453 161.098 M243.596 164.509 C 243.127 165.081,242.817 165.549,242.907 165.549 C 243.070 165.549,243.283 165.308,244.181 164.104 C 244.942 163.085,244.528 163.371,243.596 164.509 M241.324 167.230 C 241.262 167.391,240.670 168.171,240.008 168.964 C 239.346 169.756,238.891 170.402,238.997 170.400 C 239.104 170.397,239.475 170.007,239.823 169.533 C 240.170 169.058,240.778 168.280,241.175 167.803 C 241.571 167.327,241.792 166.936,241.666 166.936 C 241.540 166.936,241.386 167.068,241.324 167.230 M166.250 169.422 C 167.023 170.408,167.857 171.471,168.105 171.784 C 168.352 172.098,168.555 172.269,168.555 172.165 C 168.555 171.953,165.121 167.630,164.953 167.630 C 164.894 167.630,165.478 168.436,166.250 169.422 M237.612 171.918 C 237.261 172.357,237.057 172.711,237.158 172.704 C 237.393 172.688,238.466 171.337,238.342 171.213 C 238.291 171.162,237.962 171.479,237.612 171.918 M236.500 173.353 C 235.766 174.238,235.502 174.649,235.770 174.488 C 236.065 174.311,237.092 172.948,236.930 172.948 C 236.878 172.948,236.684 173.130,236.500 173.353 M171.093 175.484 C 171.362 175.862,171.700 176.244,171.845 176.333 C 171.989 176.422,171.816 176.113,171.460 175.647 C 170.687 174.633,170.395 174.504,171.093 175.484 M234.488 175.881 C 234.063 176.449,233.751 176.948,233.794 176.990 C 233.837 177.031,234.225 176.604,234.656 176.041 C 235.087 175.477,235.399 174.978,235.350 174.932 C 235.301 174.886,234.913 175.313,234.488 175.881 M172.738 177.572 C 173.408 178.610,173.411 178.613,173.409 178.362 C 173.409 178.246,173.140 177.838,172.812 177.457 L 172.216 176.763 172.738 177.572 M233.031 177.746 C 232.366 178.549,232.084 178.960,232.199 178.960 C 232.263 178.960,232.593 178.595,232.932 178.150 C 233.562 177.324,233.639 177.013,233.031 177.746 M174.160 179.535 C 174.447 179.978,174.765 180.342,174.867 180.344 C 174.969 180.346,174.775 179.983,174.435 179.538 C 173.642 178.497,173.487 178.495,174.160 179.535 M229.635 182.312 C 228.847 183.393,228.282 184.274,228.379 184.270 C 228.476 184.266,229.023 183.582,229.595 182.751 C 230.168 181.919,230.779 181.038,230.953 180.793 C 231.128 180.547,231.225 180.347,231.169 180.347 C 231.114 180.347,230.424 181.231,229.635 182.312 M176.356 182.486 C 176.831 183.153,177.403 183.901,177.627 184.148 C 177.851 184.394,178.035 184.698,178.035 184.822 C 178.035 184.946,178.099 184.983,178.179 184.904 C 178.312 184.771,175.822 181.272,175.594 181.272 C 175.538 181.272,175.881 181.818,176.356 182.486 M227.251 185.607 C 226.504 186.508,226.311 186.821,226.503 186.818 C 226.614 186.816,226.940 186.452,227.228 186.009 C 227.787 185.145,227.799 184.946,227.251 185.607 M182.277 190.825 C 183.086 192.010,183.801 193.128,183.866 193.310 C 183.930 193.493,184.040 193.590,184.109 193.526 C 184.263 193.385,181.228 188.675,180.981 188.672 C 180.885 188.671,181.468 189.640,182.277 190.825 M223.672 190.578 C 222.876 191.928,222.824 192.044,223.230 191.561 C 223.699 191.001,224.104 190.289,223.952 190.289 C 223.892 190.289,223.766 190.419,223.672 190.578 M222.274 192.775 C 222.056 193.124,221.780 193.540,221.662 193.699 C 221.543 193.858,221.537 193.988,221.648 193.987 C 221.759 193.985,222.075 193.569,222.351 193.062 C 222.921 192.011,222.869 191.818,222.274 192.775 M184.290 193.873 C 184.293 194.179,184.938 195.024,185.069 194.893 C 185.125 194.837,184.972 194.532,184.729 194.216 C 184.486 193.900,184.289 193.746,184.290 193.873 M220.951 194.790 C 220.740 195.112,220.649 195.376,220.748 195.376 C 220.973 195.376,221.572 194.443,221.435 194.306 C 221.379 194.250,221.162 194.469,220.951 194.790 M187.506 199.059 C 187.762 199.559,188.070 200.030,188.192 200.105 C 188.313 200.181,188.150 199.771,187.828 199.196 C 187.110 197.912,186.868 197.809,187.506 199.059 M218.150 199.306 C 217.953 199.688,217.844 200.000,217.907 200.000 C 217.971 200.000,218.184 199.688,218.382 199.306 C 218.579 198.925,218.688 198.613,218.625 198.613 C 218.561 198.613,218.348 198.925,218.150 199.306 M217.234 200.829 C 217.018 201.158,216.881 201.467,216.930 201.516 C 216.979 201.564,217.201 201.295,217.424 200.918 C 217.922 200.074,217.774 200.005,217.234 200.829 M188.858 201.272 C 189.117 201.780,189.499 202.405,189.707 202.659 C 189.916 202.913,189.803 202.601,189.456 201.965 C 188.680 200.542,188.212 200.000,188.858 201.272 M211.924 210.671 C 211.724 211.072,211.561 211.460,211.561 211.532 C 211.561 211.733,212.158 210.806,212.324 210.347 C 212.564 209.685,212.316 209.887,211.924 210.671 M199.193 222.890 C 199.451 223.739,200.420 225.896,200.543 225.896 C 200.657 225.896,199.326 222.619,199.134 222.428 C 199.070 222.364,199.097 222.572,199.193 222.890 M201.375 226.890 C 202.419 228.011,203.369 228.053,204.447 227.026 L 205.202 226.306 204.433 226.910 C 203.395 227.726,202.532 227.687,201.453 226.775 L 200.578 226.035 201.375 226.890 " stroke="none" fill="#f1c0c4" fill-rule="evenodd"></path><path id="path4" d="M200.231 0.231 C 199.999 0.381,200.992 0.451,203.237 0.443 C 205.322 0.435,206.415 0.355,206.127 0.231 C 205.487 -0.044,200.657 -0.044,200.231 0.231 M194.104 0.700 C 193.580 0.797,194.131 0.820,195.376 0.751 C 196.584 0.685,197.616 0.593,197.669 0.547 C 197.835 0.401,195.073 0.520,194.104 0.700 M208.574 0.547 C 208.627 0.594,209.607 0.689,210.751 0.758 C 212.218 0.847,212.525 0.827,211.792 0.690 C 210.740 0.495,208.396 0.391,208.574 0.547 M190.636 1.156 L 189.942 1.333 190.636 1.337 C 191.017 1.339,191.590 1.258,191.908 1.156 L 192.486 0.971 191.908 0.975 C 191.590 0.978,191.017 1.059,190.636 1.156 M214.104 1.156 C 214.422 1.258,214.942 1.341,215.260 1.341 L 215.838 1.341 215.260 1.156 C 214.942 1.054,214.422 0.971,214.104 0.971 L 213.526 0.971 214.104 1.156 M187.977 1.618 L 187.399 1.804 187.977 1.810 C 188.295 1.814,188.763 1.728,189.017 1.618 L 189.480 1.420 189.017 1.427 C 188.763 1.430,188.295 1.517,187.977 1.618 M217.110 1.618 C 217.301 1.742,217.717 1.834,218.035 1.823 L 218.613 1.804 218.035 1.618 C 217.144 1.333,216.668 1.333,217.110 1.618 M185.665 2.081 L 185.087 2.266 185.665 2.286 C 185.983 2.296,186.399 2.204,186.590 2.081 C 187.031 1.796,186.556 1.796,185.665 2.081 M219.538 2.081 C 219.792 2.190,220.208 2.277,220.462 2.273 C 220.834 2.267,220.811 2.230,220.347 2.081 C 219.556 1.828,218.948 1.828,219.538 2.081 M183.699 2.543 L 183.237 2.742 183.699 2.755 C 183.954 2.762,184.318 2.667,184.509 2.543 C 184.968 2.246,184.391 2.246,183.699 2.543 M221.734 2.533 C 221.925 2.662,222.280 2.769,222.524 2.771 C 223.116 2.776,222.931 2.643,222.081 2.453 C 221.574 2.340,221.481 2.361,221.734 2.533 M181.850 3.006 L 181.387 3.204 181.850 3.217 C 182.104 3.224,182.468 3.129,182.659 3.006 C 183.119 2.709,182.541 2.709,181.850 3.006 M223.584 2.995 C 223.775 3.124,224.130 3.232,224.374 3.233 C 224.965 3.238,224.781 3.106,223.931 2.916 C 223.424 2.802,223.331 2.824,223.584 2.995 M180.347 3.468 C 179.871 3.621,179.850 3.657,180.231 3.673 C 180.486 3.684,180.850 3.591,181.040 3.468 C 181.446 3.206,181.164 3.206,180.347 3.468 M225.202 3.458 C 225.393 3.587,225.749 3.694,225.992 3.696 C 226.584 3.701,226.399 3.568,225.549 3.378 C 225.043 3.265,224.949 3.286,225.202 3.458 M226.705 3.931 C 226.784 4.058,227.024 4.162,227.240 4.162 C 227.456 4.162,228.349 4.422,229.226 4.740 C 230.872 5.337,231.353 5.451,230.751 5.103 C 230.405 4.902,226.922 3.699,226.687 3.699 C 226.618 3.699,226.627 3.803,226.705 3.931 M163.349 10.485 C 161.560 11.509,158.150 13.681,158.150 13.798 C 158.150 13.941,158.968 13.469,161.065 12.116 C 162.130 11.429,163.081 10.864,163.177 10.860 C 163.274 10.856,163.555 10.700,163.801 10.513 C 164.325 10.117,164.026 10.098,163.349 10.485 M242.081 10.417 C 242.678 10.824,244.162 11.575,244.162 11.470 C 244.162 11.348,242.084 10.172,241.878 10.177 C 241.799 10.179,241.890 10.287,242.081 10.417 M244.393 11.640 C 244.393 11.779,246.208 12.949,246.411 12.941 C 246.509 12.937,246.382 12.773,246.127 12.576 C 245.574 12.149,244.393 11.511,244.393 11.640 M156.202 15.060 C 155.321 15.683,154.177 16.565,153.659 17.022 L 152.717 17.851 153.757 17.058 C 154.329 16.622,155.474 15.815,156.301 15.265 C 158.088 14.074,158.021 14.127,157.900 14.016 C 157.847 13.967,157.083 14.437,156.202 15.060 M248.891 14.550 C 248.978 14.690,249.796 15.322,250.710 15.954 C 251.623 16.586,252.734 17.377,253.179 17.712 C 253.869 18.230,253.852 18.198,253.064 17.492 C 251.970 16.513,248.664 14.181,248.891 14.550 M151.417 18.748 L 150.405 19.693 151.503 18.836 C 152.506 18.053,152.751 17.803,152.515 17.803 C 152.468 17.803,151.974 18.229,151.417 18.748 M255.954 20.020 C 258.738 22.510,263.344 27.228,265.262 29.555 C 265.611 29.978,265.896 30.226,265.896 30.106 C 265.896 29.473,257.318 20.755,255.145 19.178 C 254.763 18.902,255.127 19.280,255.954 20.020 M146.316 23.410 C 144.357 25.350,142.448 27.301,142.074 27.746 C 141.699 28.191,142.848 27.088,144.627 25.296 C 146.406 23.504,148.403 21.553,149.065 20.961 C 149.727 20.369,150.181 19.884,150.073 19.884 C 149.965 19.884,148.274 21.471,146.316 23.410 M140.012 30.173 C 139.543 30.746,139.233 31.214,139.323 31.214 C 139.486 31.214,139.699 30.973,140.597 29.769 C 141.358 28.750,140.945 29.036,140.012 30.173 M266.127 30.409 C 266.127 30.500,266.625 31.212,267.234 31.992 C 267.843 32.772,268.952 34.295,269.699 35.376 C 271.021 37.288,271.724 38.189,271.323 37.457 C 270.551 36.045,266.127 30.045,266.127 30.409 M138.696 31.850 C 137.963 32.735,137.699 33.146,137.966 32.985 C 138.262 32.808,139.289 31.445,139.127 31.445 C 139.074 31.445,138.880 31.627,138.696 31.850 M136.570 34.740 C 135.033 36.907,132.947 40.160,132.953 40.382 C 132.960 40.630,133.861 39.491,133.868 39.226 C 133.871 39.119,134.754 37.740,135.831 36.163 C 137.856 33.196,138.378 32.192,136.570 34.740 M272.379 39.422 C 272.380 39.549,272.593 39.913,272.853 40.231 C 273.167 40.615,273.246 40.654,273.087 40.347 C 272.697 39.593,272.377 39.175,272.379 39.422 M132.378 41.292 C 132.163 41.621,132.039 41.942,132.103 42.007 C 132.168 42.071,132.387 41.802,132.590 41.409 C 133.040 40.539,132.916 40.471,132.378 41.292 M273.642 41.618 C 273.839 42.000,274.052 42.312,274.116 42.312 C 274.180 42.312,274.070 42.000,273.873 41.618 C 273.676 41.237,273.462 40.925,273.399 40.925 C 273.335 40.925,273.444 41.237,273.642 41.618 M200.983 41.791 C 202.095 41.833,203.916 41.833,205.029 41.791 C 206.142 41.748,205.231 41.714,203.006 41.714 C 200.780 41.714,199.870 41.748,200.983 41.791 M208.324 42.072 C 208.769 42.177,209.809 42.385,210.636 42.534 C 211.462 42.684,212.399 42.865,212.717 42.938 C 213.035 43.011,213.227 42.997,213.144 42.907 C 212.952 42.698,210.437 42.182,208.786 42.012 C 207.840 41.915,207.722 41.931,208.324 42.072 M195.260 42.318 C 194.951 42.455,195.143 42.477,195.838 42.385 C 196.410 42.310,196.922 42.210,196.975 42.164 C 197.176 41.990,195.702 42.123,195.260 42.318 M131.230 43.388 C 130.900 43.979,130.666 44.500,130.711 44.545 C 130.756 44.590,131.076 44.106,131.422 43.469 C 131.769 42.833,132.002 42.312,131.942 42.312 C 131.881 42.312,131.561 42.796,131.230 43.388 M192.717 42.897 C 191.485 43.302,192.179 43.302,193.642 42.896 C 194.279 42.719,194.538 42.578,194.220 42.583 C 193.902 42.588,193.225 42.729,192.717 42.897 M213.430 43.089 C 213.483 43.135,213.838 43.242,214.220 43.327 C 214.726 43.440,214.820 43.419,214.566 43.248 C 214.254 43.036,213.198 42.889,213.430 43.089 M190.083 43.702 C 189.397 43.949,188.773 44.222,188.695 44.309 C 188.618 44.396,188.757 44.394,189.005 44.304 C 189.252 44.215,189.954 43.978,190.565 43.778 C 191.176 43.578,191.676 43.375,191.676 43.326 C 191.676 43.169,191.356 43.244,190.083 43.702 M275.336 44.798 C 275.451 45.020,275.876 45.905,276.281 46.763 C 276.686 47.621,277.071 48.324,277.135 48.324 C 277.200 48.324,277.211 48.246,277.161 48.150 C 277.111 48.055,276.688 47.171,276.221 46.185 C 275.755 45.199,275.318 44.393,275.251 44.393 C 275.183 44.393,275.222 44.575,275.336 44.798 M219.502 45.345 C 219.990 45.603,220.444 45.760,220.509 45.695 C 220.622 45.582,219.064 44.844,218.758 44.866 C 218.678 44.871,219.013 45.087,219.502 45.345 M221.734 46.339 C 221.734 46.391,222.176 46.683,222.717 46.986 C 223.257 47.290,224.008 47.741,224.384 47.989 C 224.761 48.237,224.997 48.323,224.909 48.180 C 224.650 47.759,221.734 46.068,221.734 46.339 M181.272 48.016 C 180.191 48.727,179.254 49.374,179.191 49.454 C 179.127 49.533,178.659 49.906,178.150 50.283 C 177.027 51.115,172.909 55.067,173.035 55.193 C 173.084 55.242,173.735 54.642,174.481 53.859 C 176.169 52.087,179.469 49.415,181.875 47.874 C 182.878 47.231,183.595 46.709,183.468 46.714 C 183.341 46.719,182.353 47.305,181.272 48.016 M225.318 48.490 C 225.769 48.973,228.670 51.077,228.663 50.916 C 228.656 50.745,228.481 50.610,226.358 49.129 C 225.659 48.641,225.191 48.353,225.318 48.490 M228.921 51.272 C 228.932 51.367,229.374 51.804,229.904 52.244 L 230.867 53.042 229.953 52.070 C 229.013 51.071,228.888 50.974,228.921 51.272 M231.445 53.555 C 231.445 53.635,231.809 54.104,232.254 54.597 C 232.699 55.090,233.064 55.427,233.064 55.347 C 233.064 55.266,232.699 54.797,232.254 54.305 C 231.809 53.812,231.445 53.475,231.445 53.555 M171.667 56.821 C 170.715 58.019,169.792 59.420,170.334 58.844 C 170.848 58.298,172.945 55.491,172.840 55.491 C 172.776 55.491,172.248 56.090,171.667 56.821 M280.085 56.127 C 280.149 56.350,280.329 56.975,280.485 57.516 C 280.640 58.057,280.809 58.459,280.860 58.408 C 280.978 58.289,280.236 55.723,280.084 55.723 C 280.020 55.723,280.021 55.905,280.085 56.127 M125.472 57.033 C 125.387 57.118,125.325 57.404,125.333 57.669 C 125.346 58.112,125.365 58.106,125.569 57.596 C 125.795 57.030,125.748 56.757,125.472 57.033 M235.969 59.284 C 236.444 60.000,236.879 60.539,236.936 60.482 C 237.059 60.359,235.707 58.355,235.353 58.136 C 235.217 58.052,235.494 58.569,235.969 59.284 M125.000 58.622 C 124.920 58.828,124.864 59.171,124.875 59.383 C 124.886 59.595,124.987 59.462,125.099 59.087 C 125.317 58.357,125.240 57.996,125.000 58.622 M281.066 59.306 C 281.256 60.157,281.388 60.341,281.384 59.750 C 281.382 59.506,281.275 59.150,281.146 58.960 C 280.974 58.706,280.953 58.800,281.066 59.306 M169.594 59.655 C 169.363 59.910,169.229 60.173,169.296 60.240 C 169.362 60.307,169.590 60.098,169.801 59.776 C 170.261 59.073,170.170 59.019,169.594 59.655 M124.548 60.272 C 124.093 61.897,123.687 63.879,123.787 63.980 C 123.854 64.046,123.973 63.802,124.052 63.438 C 124.131 63.073,124.342 62.157,124.521 61.402 C 124.814 60.165,124.837 59.242,124.548 60.272 M281.536 61.156 C 281.614 61.665,281.767 62.237,281.875 62.428 C 282.114 62.847,281.869 61.370,281.587 60.694 C 281.466 60.402,281.447 60.573,281.536 61.156 M168.786 60.799 C 168.786 60.921,168.494 61.519,168.136 62.129 C 167.471 63.264,167.116 64.046,167.267 64.046 C 167.314 64.046,167.581 63.604,167.860 63.064 C 168.139 62.523,168.574 61.743,168.827 61.329 C 169.080 60.916,169.174 60.578,169.036 60.578 C 168.899 60.578,168.786 60.678,168.786 60.799 M237.202 61.156 C 237.592 61.910,237.912 62.328,237.910 62.081 C 237.910 61.954,237.696 61.590,237.436 61.272 C 237.122 60.888,237.043 60.849,237.202 61.156 M238.661 63.923 C 239.066 64.746,239.436 65.381,239.483 65.334 C 239.586 65.231,238.188 62.428,238.034 62.428 C 237.973 62.428,238.255 63.101,238.661 63.923 M282.097 63.487 C 282.106 63.858,282.206 64.370,282.318 64.624 C 282.455 64.933,282.477 64.741,282.385 64.046 C 282.223 62.821,282.074 62.532,282.097 63.487 M123.503 64.779 C 123.484 65.118,123.408 65.586,123.335 65.819 C 123.209 66.220,123.217 66.220,123.466 65.832 C 123.610 65.606,123.686 65.138,123.633 64.792 L 123.537 64.162 123.503 64.779 M123.040 67.052 C 123.018 67.370,122.942 67.890,122.871 68.208 C 122.761 68.706,122.779 68.729,123.004 68.377 C 123.148 68.151,123.224 67.631,123.173 67.220 C 123.100 66.640,123.071 66.602,123.040 67.052 M165.434 67.977 C 165.347 68.250,165.328 68.526,165.391 68.590 C 165.455 68.653,165.578 68.482,165.665 68.208 C 165.752 67.935,165.771 67.659,165.707 67.595 C 165.643 67.532,165.520 67.703,165.434 67.977 M283.022 68.459 C 283.031 68.893,283.133 69.457,283.249 69.711 C 283.390 70.022,283.413 69.796,283.318 69.017 C 283.151 67.641,282.999 67.355,283.022 68.459 M122.454 70.952 C 122.363 71.634,122.338 72.242,122.399 72.303 C 122.553 72.457,122.845 70.384,122.721 70.014 C 122.665 69.848,122.545 70.269,122.454 70.952 M164.509 70.751 C 164.422 71.025,164.403 71.301,164.466 71.364 C 164.530 71.428,164.653 71.256,164.740 70.983 C 164.827 70.709,164.846 70.433,164.782 70.370 C 164.719 70.306,164.595 70.478,164.509 70.751 M241.407 71.214 C 241.414 71.405,241.509 71.769,241.618 72.023 L 241.817 72.486 241.830 72.023 C 241.837 71.769,241.742 71.405,241.618 71.214 C 241.419 70.906,241.396 70.906,241.407 71.214 M283.525 71.792 C 283.524 72.301,283.602 73.029,283.699 73.410 C 283.954 74.411,283.962 73.320,283.711 71.908 L 283.526 70.867 283.525 71.792 M164.075 72.494 C 163.996 72.701,163.940 73.044,163.951 73.256 C 163.961 73.468,164.062 73.335,164.174 72.960 C 164.392 72.230,164.315 71.869,164.075 72.494 M242.008 73.757 C 242.083 74.329,242.183 74.841,242.229 74.894 C 242.403 75.095,242.270 73.621,242.075 73.179 C 241.938 72.870,241.916 73.062,242.008 73.757 M121.973 75.793 C 121.876 77.357,121.850 78.690,121.915 78.755 C 122.071 78.911,122.397 73.660,122.256 73.258 C 122.197 73.088,122.069 74.228,121.973 75.793 M163.612 74.575 C 163.533 74.782,163.480 75.281,163.494 75.684 C 163.516 76.322,163.545 76.284,163.720 75.390 C 163.926 74.338,163.869 73.906,163.612 74.575 M284.003 81.272 L 284.009 87.514 284.162 83.121 C 284.246 80.705,284.244 77.896,284.156 76.879 C 284.058 75.732,283.999 77.403,284.003 81.272 M242.472 76.647 C 242.546 77.410,242.645 78.078,242.691 78.131 C 242.869 78.336,242.731 76.160,242.539 75.723 C 242.410 75.429,242.385 75.766,242.472 76.647 M163.133 78.287 C 162.954 79.242,163.022 84.002,163.227 84.837 C 163.303 85.146,163.362 83.611,163.359 81.427 C 163.352 77.062,163.355 77.103,163.133 78.287 M242.846 82.197 C 242.848 82.960,242.891 83.244,242.942 82.828 C 242.994 82.413,242.993 81.788,242.940 81.441 C 242.887 81.094,242.845 81.434,242.846 82.197 M122.015 86.821 C 122.081 88.347,122.175 89.639,122.224 89.692 C 122.368 89.849,122.272 87.170,122.076 85.549 C 121.949 84.499,121.930 84.883,122.015 86.821 M242.582 85.809 C 242.561 86.143,242.489 86.767,242.422 87.197 C 242.310 87.911,242.321 87.929,242.548 87.407 C 242.685 87.093,242.757 86.469,242.709 86.020 C 242.645 85.429,242.610 85.371,242.582 85.809 M163.484 87.187 C 163.493 87.621,163.595 88.185,163.711 88.439 C 163.853 88.751,163.876 88.524,163.781 87.746 C 163.613 86.369,163.462 86.083,163.484 87.187 M242.109 88.671 C 242.090 88.925,242.021 89.393,241.956 89.711 L 241.837 90.289 242.084 89.722 C 242.221 89.410,242.290 88.942,242.238 88.681 C 242.146 88.220,242.143 88.220,242.109 88.671 M283.641 89.595 C 283.549 90.104,283.484 90.936,283.498 91.445 C 283.521 92.312,283.535 92.291,283.735 91.098 C 283.851 90.399,283.916 89.566,283.878 89.249 C 283.825 88.801,283.771 88.880,283.641 89.595 M163.934 89.730 C 163.936 90.038,164.040 90.445,164.165 90.636 C 164.325 90.880,164.348 90.743,164.244 90.173 C 164.061 89.176,163.929 88.988,163.934 89.730 M122.349 91.098 C 122.343 91.416,122.425 92.092,122.530 92.601 L 122.721 93.526 122.725 92.601 C 122.727 92.092,122.645 91.416,122.543 91.098 L 122.358 90.520 122.349 91.098 M241.519 91.230 C 241.434 91.569,241.417 91.898,241.480 91.962 C 241.544 92.026,241.666 91.800,241.751 91.462 C 241.836 91.123,241.853 90.793,241.790 90.730 C 241.726 90.666,241.604 90.892,241.519 91.230 M164.397 91.696 C 164.399 91.939,164.506 92.295,164.635 92.486 C 164.806 92.739,164.828 92.645,164.714 92.139 C 164.524 91.289,164.392 91.104,164.397 91.696 M241.040 92.948 C 240.954 93.221,240.935 93.497,240.998 93.561 C 241.062 93.624,241.185 93.453,241.272 93.179 C 241.358 92.906,241.377 92.630,241.314 92.566 C 241.250 92.503,241.127 92.674,241.040 92.948 M283.154 93.459 C 283.076 93.750,283.023 94.353,283.036 94.798 C 283.055 95.453,283.099 95.369,283.267 94.358 C 283.480 93.078,283.408 92.510,283.154 93.459 M122.932 95.145 C 123.005 95.780,123.104 96.344,123.151 96.397 C 123.314 96.579,123.191 95.144,122.994 94.566 C 122.862 94.177,122.841 94.365,122.932 95.145 M166.131 96.809 C 166.478 97.638,166.705 98.013,166.705 97.755 C 166.705 97.505,166.003 95.954,165.890 95.954 C 165.826 95.954,165.935 96.339,166.131 96.809 M282.652 96.821 C 282.572 97.298,282.412 97.990,282.294 98.358 C 282.177 98.727,282.088 99.247,282.096 99.514 C 282.105 99.781,282.248 99.480,282.415 98.844 C 282.823 97.287,283.052 95.954,282.911 95.954 C 282.848 95.954,282.731 96.344,282.652 96.821 M239.576 97.098 C 239.441 97.486,239.380 97.803,239.440 97.803 C 239.596 97.803,240.032 96.602,239.918 96.488 C 239.865 96.435,239.712 96.710,239.576 97.098 M123.389 97.688 C 123.466 98.197,123.568 98.656,123.614 98.709 C 123.790 98.908,123.659 97.669,123.457 97.225 C 123.311 96.903,123.291 97.043,123.389 97.688 M238.881 98.623 C 238.494 99.473,238.568 99.654,238.987 98.881 C 239.183 98.520,239.299 98.182,239.246 98.129 C 239.194 98.076,239.029 98.298,238.881 98.623 M123.849 99.653 C 124.032 100.650,124.163 100.838,124.158 100.096 C 124.156 99.789,124.052 99.382,123.927 99.191 C 123.767 98.947,123.744 99.084,123.849 99.653 M167.333 99.364 C 167.562 99.981,168.338 101.358,168.603 101.618 C 168.732 101.746,168.504 101.199,168.095 100.405 C 167.379 99.013,167.019 98.522,167.333 99.364 M281.735 100.867 C 281.652 101.280,281.535 101.827,281.475 102.081 C 281.390 102.439,281.413 102.465,281.578 102.197 C 281.820 101.801,282.157 100.116,281.994 100.116 C 281.935 100.116,281.818 100.454,281.735 100.867 M237.372 101.561 L 236.956 102.312 237.432 101.734 C 237.855 101.221,238.043 100.809,237.853 100.809 C 237.817 100.809,237.600 101.147,237.372 101.561 M124.407 101.814 C 124.391 102.307,125.090 104.814,125.210 104.694 C 125.254 104.650,125.094 103.888,124.855 103.000 C 124.616 102.113,124.415 101.579,124.407 101.814 M169.249 102.739 C 169.249 102.999,170.276 104.503,170.455 104.506 C 170.547 104.507,170.359 104.121,170.038 103.648 C 169.364 102.655,169.249 102.522,169.249 102.739 M280.873 104.081 C 280.659 104.879,280.520 105.568,280.563 105.612 C 280.699 105.747,281.444 103.175,281.350 102.895 C 281.302 102.749,281.087 103.283,280.873 104.081 M235.957 103.750 L 235.551 104.393 236.086 103.879 C 236.381 103.597,236.564 103.307,236.492 103.236 C 236.421 103.165,236.181 103.396,235.957 103.750 M234.115 106.239 C 233.386 107.191,231.680 109.032,230.325 110.331 C 228.970 111.630,228.115 112.519,228.426 112.305 C 229.229 111.753,232.710 108.323,233.614 107.194 C 234.835 105.667,235.671 104.509,235.551 104.509 C 235.490 104.509,234.843 105.287,234.115 106.239 M125.334 105.362 C 125.325 105.641,125.422 105.933,125.549 106.012 C 125.823 106.181,125.823 105.954,125.549 105.318 C 125.358 104.872,125.350 104.874,125.334 105.362 M280.132 106.491 C 280.047 106.829,280.030 107.159,280.093 107.222 C 280.157 107.286,280.278 107.061,280.363 106.722 C 280.448 106.383,280.466 106.054,280.402 105.990 C 280.339 105.926,280.217 106.152,280.132 106.491 M173.114 107.861 C 174.316 109.271,176.416 111.397,176.416 111.204 C 176.416 111.146,175.407 110.058,174.173 108.786 C 172.940 107.514,172.463 107.098,173.114 107.861 M279.653 107.977 C 279.566 108.250,279.547 108.526,279.611 108.590 C 279.675 108.653,279.798 108.482,279.884 108.208 C 279.971 107.935,279.990 107.659,279.927 107.595 C 279.863 107.532,279.740 107.703,279.653 107.977 M176.647 111.286 C 176.647 111.326,176.986 111.664,177.399 112.038 L 178.150 112.717 177.471 111.965 C 176.838 111.265,176.647 111.108,176.647 111.286 M278.130 112.081 C 277.999 112.431,277.741 113.019,277.558 113.388 C 277.198 114.115,277.107 114.793,277.448 114.211 C 277.798 113.612,278.613 111.445,278.488 111.445 C 278.423 111.445,278.262 111.731,278.130 112.081 M128.906 114.844 C 129.253 115.673,129.480 116.047,129.480 115.789 C 129.480 115.540,128.777 113.988,128.664 113.988 C 128.601 113.988,128.709 114.373,128.906 114.844 M225.557 114.207 C 225.483 114.327,224.488 114.964,223.347 115.623 C 221.198 116.863,220.569 117.362,222.211 116.525 C 224.112 115.555,226.333 113.988,225.808 113.988 C 225.744 113.988,225.631 114.087,225.557 114.207 M180.578 114.510 C 180.990 114.902,183.341 116.239,183.006 115.890 C 182.879 115.758,182.202 115.319,181.503 114.915 C 180.803 114.510,180.387 114.328,180.578 114.510 M276.030 116.705 C 274.839 119.148,274.669 119.538,274.793 119.538 C 274.846 119.538,275.381 118.523,275.983 117.283 C 276.585 116.043,277.116 114.951,277.165 114.855 C 277.213 114.760,277.200 114.682,277.134 114.682 C 277.069 114.682,276.572 115.592,276.030 116.705 M183.353 116.183 C 183.353 116.341,184.768 117.043,184.874 116.937 C 184.924 116.887,184.602 116.673,184.159 116.461 C 183.715 116.250,183.353 116.125,183.353 116.183 M218.844 117.932 C 218.335 118.172,218.075 118.368,218.266 118.366 C 218.457 118.364,218.977 118.163,219.422 117.919 C 220.460 117.351,220.053 117.360,218.844 117.932 M130.636 118.468 C 130.636 118.637,131.833 120.694,131.931 120.694 C 131.986 120.694,131.767 120.173,131.445 119.538 C 130.943 118.547,130.636 118.141,130.636 118.468 M216.647 118.844 C 216.075 119.084,215.724 119.286,215.868 119.293 C 216.196 119.310,217.803 118.646,217.803 118.494 C 217.803 118.351,217.868 118.332,216.647 118.844 M190.877 119.509 C 191.142 119.756,194.032 120.496,194.174 120.354 C 194.229 120.299,193.976 120.186,193.611 120.103 C 193.246 120.020,192.432 119.806,191.802 119.627 C 191.171 119.449,190.755 119.395,190.877 119.509 M214.368 119.572 C 213.940 119.695,213.634 119.838,213.687 119.891 C 213.804 120.008,215.491 119.559,215.491 119.411 C 215.491 119.275,215.308 119.301,214.368 119.572 M212.023 120.234 C 211.779 120.394,211.916 120.418,212.486 120.313 C 213.483 120.130,213.671 119.999,212.929 120.004 C 212.621 120.005,212.214 120.109,212.023 120.234 M195.260 120.707 C 196.431 120.949,197.378 120.938,196.416 120.694 C 196.035 120.597,195.410 120.517,195.029 120.516 C 194.446 120.516,194.483 120.546,195.260 120.707 M273.642 121.387 C 273.444 121.769,273.335 122.081,273.399 122.081 C 273.462 122.081,273.676 121.769,273.873 121.387 C 274.070 121.006,274.180 120.694,274.116 120.694 C 274.052 120.694,273.839 121.006,273.642 121.387 M198.266 121.167 C 198.902 121.266,199.838 121.342,200.347 121.336 C 201.244 121.326,201.237 121.320,200.116 121.145 C 199.480 121.046,198.543 120.970,198.035 120.976 C 197.138 120.986,197.145 120.992,198.266 121.167 M206.012 121.156 C 205.078 121.301,205.054 121.319,205.780 121.330 C 206.225 121.336,207.162 121.262,207.861 121.166 C 209.116 120.992,209.119 120.990,208.092 120.992 C 207.520 120.993,206.584 121.067,206.012 121.156 M133.538 123.584 C 134.350 125.054,137.310 129.433,137.624 129.627 C 137.754 129.708,137.089 128.641,136.146 127.257 C 135.203 125.873,134.301 124.480,134.142 124.162 C 133.982 123.844,133.638 123.324,133.376 123.006 C 133.041 122.598,133.088 122.769,133.538 123.584 M271.791 124.394 C 271.560 124.650,271.425 124.913,271.492 124.980 C 271.559 125.047,271.786 124.838,271.997 124.516 C 272.458 123.813,272.366 123.759,271.791 124.394 M270.042 127.097 C 268.689 129.014,268.225 129.747,268.609 129.364 C 269.145 128.831,271.555 125.318,271.386 125.318 C 271.338 125.318,270.733 126.118,270.042 127.097 M267.570 130.523 C 266.897 131.562,267.052 131.561,267.846 130.520 C 268.185 130.075,268.380 129.712,268.278 129.714 C 268.176 129.715,267.857 130.080,267.570 130.523 M266.195 132.660 C 265.497 134.136,265.721 134.203,266.462 132.740 C 266.791 132.091,266.980 131.565,266.883 131.571 C 266.785 131.577,266.476 132.067,266.195 132.660 M265.275 134.509 C 265.196 134.731,265.087 135.017,265.034 135.145 C 264.981 135.272,265.101 135.174,265.301 134.927 C 265.664 134.479,265.774 134.104,265.542 134.104 C 265.474 134.104,265.354 134.286,265.275 134.509 M141.518 136.358 C 142.651 138.266,143.407 139.422,143.519 139.422 C 143.584 139.422,143.458 139.149,143.240 138.816 C 143.022 138.483,142.484 137.598,142.046 136.851 C 141.608 136.103,141.194 135.491,141.126 135.491 C 141.058 135.491,141.235 135.882,141.518 136.358 M263.556 137.630 C 263.405 137.916,263.130 138.410,262.945 138.728 C 262.624 139.283,262.626 139.288,262.999 138.844 C 263.460 138.296,264.107 137.110,263.945 137.110 C 263.882 137.110,263.707 137.344,263.556 137.630 M143.726 139.942 C 144.211 140.770,145.697 142.890,145.791 142.890 C 145.851 142.890,145.415 142.162,144.823 141.272 C 144.231 140.382,143.704 139.653,143.652 139.653 C 143.599 139.653,143.633 139.783,143.726 139.942 M261.480 140.962 C 261.192 141.428,260.127 142.963,259.113 144.373 C 258.098 145.783,257.417 146.814,257.598 146.663 C 258.195 146.170,262.378 140.116,262.122 140.116 C 262.057 140.116,261.768 140.497,261.480 140.962 M146.723 144.335 C 147.200 145.003,147.794 145.757,148.043 146.012 C 148.292 146.266,147.954 145.720,147.293 144.798 C 146.631 143.876,146.038 143.121,145.973 143.121 C 145.909 143.121,146.247 143.668,146.723 144.335 M149.103 147.572 C 149.480 148.113,150.116 148.919,150.515 149.364 C 150.914 149.809,150.650 149.367,149.928 148.382 C 148.546 146.496,147.929 145.890,149.103 147.572 M256.517 147.901 C 256.161 148.368,255.988 148.677,256.132 148.587 C 256.428 148.405,257.429 147.052,257.269 147.052 C 257.211 147.052,256.873 147.434,256.517 147.901 M255.459 149.306 C 254.726 150.192,254.462 150.603,254.729 150.442 C 255.025 150.265,256.052 148.902,255.890 148.902 C 255.837 148.902,255.643 149.084,255.459 149.306 M152.629 152.089 C 153.424 153.142,154.235 154.130,154.429 154.285 C 154.823 154.598,153.023 152.246,151.901 150.983 C 151.506 150.538,151.834 151.035,152.629 152.089 M253.702 151.519 C 253.421 151.924,252.902 152.613,252.549 153.051 C 252.196 153.489,252.022 153.778,252.163 153.694 C 252.527 153.475,254.419 150.990,254.307 150.878 C 254.256 150.826,253.984 151.115,253.702 151.519 M250.818 155.202 C 249.464 156.832,249.170 157.225,249.310 157.225 C 249.375 157.225,250.016 156.497,250.735 155.607 C 251.455 154.717,251.995 153.988,251.935 153.988 C 251.876 153.988,251.374 154.535,250.818 155.202 M246.647 160.300 C 245.406 161.852,244.120 163.434,243.788 163.815 C 242.854 164.889,242.081 165.923,242.081 166.098 C 242.081 166.185,242.779 165.395,243.633 164.342 C 244.487 163.289,246.101 161.309,247.221 159.942 C 248.341 158.575,249.178 157.462,249.080 157.468 C 248.982 157.474,247.887 158.748,246.647 160.300 M157.688 158.262 C 157.688 158.474,162.257 164.101,162.598 164.309 C 162.759 164.407,162.465 163.972,161.945 163.342 C 161.425 162.712,160.255 161.279,159.344 160.158 C 158.433 159.037,157.688 158.184,157.688 158.262 M163.426 165.434 C 163.821 165.942,164.524 166.775,164.989 167.283 L 165.833 168.208 164.944 167.052 C 164.455 166.416,163.752 165.584,163.382 165.202 C 162.712 164.513,162.712 164.514,163.426 165.434 M240.850 167.425 C 240.364 168.047,240.013 168.555,240.071 168.555 C 240.234 168.555,241.912 166.458,241.818 166.372 C 241.772 166.330,241.336 166.804,240.850 167.425 M166.050 168.728 C 166.238 168.951,167.620 170.668,169.120 172.543 C 170.621 174.419,171.895 175.954,171.951 175.954 C 172.046 175.954,169.985 173.205,169.697 172.948 C 169.626 172.884,168.756 171.818,167.764 170.578 C 166.773 169.338,165.904 168.324,165.835 168.324 C 165.765 168.324,165.862 168.506,166.050 168.728 M239.280 169.422 C 238.444 170.347,237.994 170.980,238.307 170.793 C 238.602 170.616,240.098 168.786,239.947 168.786 C 239.897 168.786,239.597 169.072,239.280 169.422 M236.595 172.775 C 235.848 173.697,234.473 175.439,233.538 176.647 C 232.604 177.855,231.738 178.974,231.614 179.133 C 231.490 179.292,231.446 179.422,231.515 179.422 C 231.585 179.422,232.345 178.512,233.204 177.399 C 234.063 176.286,235.532 174.413,236.468 173.237 C 237.405 172.061,238.122 171.098,238.062 171.098 C 238.002 171.098,237.342 171.853,236.595 172.775 M173.651 178.360 C 174.085 178.965,174.541 179.522,174.663 179.597 C 174.785 179.672,174.529 179.239,174.095 178.634 C 173.660 178.029,173.205 177.473,173.083 177.397 C 172.961 177.322,173.217 177.755,173.651 178.360 M230.520 180.636 C 229.288 182.206,229.188 182.359,229.606 182.034 C 229.982 181.741,231.540 179.653,231.383 179.653 C 231.332 179.653,230.944 180.095,230.520 180.636 M175.053 180.231 C 175.248 180.486,176.004 181.500,176.734 182.486 C 177.464 183.471,178.111 184.277,178.172 184.277 C 178.338 184.277,175.746 180.769,175.183 180.231 L 174.699 179.769 175.053 180.231 M228.398 183.526 C 227.796 184.234,226.952 185.522,227.185 185.379 C 227.443 185.219,228.978 183.121,228.836 183.121 C 228.785 183.121,228.587 183.303,228.398 183.526 M179.528 186.375 C 180.272 187.447,181.036 188.480,181.226 188.671 C 181.415 188.861,180.918 188.053,180.122 186.875 C 179.325 185.697,178.561 184.664,178.424 184.579 C 178.287 184.495,178.784 185.303,179.528 186.375 M223.734 190.080 C 222.354 192.119,221.263 193.826,221.311 193.873 C 221.358 193.921,221.961 193.107,222.650 192.066 C 223.340 191.025,224.508 189.315,225.245 188.266 C 225.982 187.217,226.509 186.362,226.414 186.365 C 226.320 186.369,225.114 188.041,223.734 190.080 M181.653 189.422 C 182.334 190.531,185.434 194.958,185.434 194.821 C 185.434 194.604,181.731 189.133,181.585 189.133 C 181.525 189.133,181.555 189.263,181.653 189.422 M220.655 194.855 C 220.437 195.205,220.149 195.641,220.014 195.825 C 219.836 196.067,219.841 196.115,220.035 195.999 C 220.315 195.831,221.329 194.220,221.154 194.220 C 221.097 194.220,220.873 194.506,220.655 194.855 M185.806 195.730 C 186.017 196.052,186.235 196.270,186.290 196.215 C 186.427 196.078,185.829 195.145,185.604 195.145 C 185.504 195.145,185.595 195.408,185.806 195.730 M219.333 196.879 C 219.128 197.197,218.791 197.743,218.585 198.092 L 218.211 198.728 218.676 198.166 C 219.226 197.501,219.954 196.301,219.808 196.301 C 219.752 196.301,219.538 196.561,219.333 196.879 M186.702 197.138 C 186.921 197.471,187.458 198.355,187.896 199.103 C 188.334 199.851,188.748 200.462,188.816 200.462 C 188.884 200.462,188.708 200.072,188.424 199.595 C 187.291 197.688,186.535 196.532,186.423 196.532 C 186.358 196.532,186.484 196.804,186.702 197.138 M217.718 199.595 L 217.302 200.347 217.779 199.769 C 218.202 199.256,218.389 198.844,218.200 198.844 C 218.164 198.844,217.947 199.182,217.718 199.595 M216.771 201.061 C 216.556 201.389,216.432 201.711,216.496 201.776 C 216.561 201.840,216.780 201.571,216.983 201.178 C 217.433 200.308,217.309 200.240,216.771 201.061 M189.241 201.329 C 189.442 201.743,189.657 202.081,189.717 202.081 C 189.947 202.081,189.799 201.713,189.345 201.156 L 188.874 200.578 189.241 201.329 M215.846 202.679 C 215.631 203.008,215.507 203.330,215.571 203.394 C 215.636 203.459,215.855 203.189,216.058 202.796 C 216.508 201.927,216.384 201.858,215.846 202.679 M190.165 202.948 C 190.367 203.361,190.581 203.699,190.642 203.699 C 190.872 203.699,190.724 203.331,190.270 202.775 L 189.799 202.197 190.165 202.948 M214.890 204.438 C 214.680 204.844,214.308 205.532,214.064 205.968 C 213.819 206.403,213.658 206.798,213.705 206.846 C 213.753 206.893,214.178 206.205,214.651 205.316 C 215.124 204.427,215.457 203.699,215.391 203.699 C 215.326 203.699,215.100 204.032,214.890 204.438 M191.352 205.088 C 191.699 205.724,192.019 206.208,192.064 206.163 C 192.164 206.064,190.988 203.931,190.833 203.931 C 190.772 203.931,191.006 204.451,191.352 205.088 M193.064 208.324 C 193.575 209.341,194.046 210.173,194.109 210.173 C 194.173 210.173,193.806 209.341,193.295 208.324 C 192.783 207.306,192.313 206.474,192.249 206.474 C 192.186 206.474,192.552 207.306,193.064 208.324 M208.390 217.746 C 208.307 217.968,207.598 219.733,206.814 221.668 C 206.030 223.603,205.466 225.138,205.560 225.080 C 205.707 224.989,206.518 223.055,208.345 218.439 C 208.584 217.835,208.726 217.341,208.660 217.341 C 208.594 217.341,208.473 217.523,208.390 217.746 M198.392 219.884 C 198.671 220.584,199.106 221.760,199.359 222.498 C 199.613 223.237,199.866 223.794,199.923 223.738 C 200.056 223.605,198.405 219.149,198.110 218.844 C 197.987 218.717,198.114 219.185,198.392 219.884 M200.000 224.133 C 200.000 224.416,200.908 226.090,201.140 226.233 C 201.261 226.308,201.089 225.873,200.757 225.266 C 200.070 224.011,200.000 223.905,200.000 224.133 M204.559 226.240 C 203.772 227.226,202.977 227.469,202.203 226.962 C 201.890 226.757,201.553 226.590,201.453 226.591 C 201.353 226.592,201.584 226.799,201.965 227.052 C 203.054 227.773,204.342 227.288,205.100 225.871 C 205.447 225.222,205.280 225.336,204.559 226.240 " stroke="none" fill="#e4747c" fill-rule="evenodd"></path></g></svg>